<svg id="Capa_1" data-name="Capa 1" xmlns="httpswww.w3.org/2000/svg" viewBox="0 0 3000 3000"><defs><style>.cls-1{fill:#fff;}.cls-2{fill:#fef8ea;}.cls-3{fill:#edc34d;}.cls-4{fill:#fbb03b;}.cls-5{fill:#bcddff;opacity:0.76;}.cls-6{opacity:0.49;}.cls-7{fill:#dd92a2;}.cls-8{opacity:0.65;}</style></defs><path class="cls-1" d="M1797.8,656.15c1.35,0,1.29-8.93-.22-8.93-1.36,0-1.29,8.93.22,8.93Z"/><path class="cls-2" d="M632.12,1878.61c1.35,0,1.28-8.93-.22-8.93s-1.29,8.93.22,8.93Z"/><path class="cls-2" d="M755.7,1831.85c1.35,0,1.29-8.93-.22-8.93s-1.29,8.93.22,8.93Z"/><text/><path class="cls-3" d="M2241.13,2044.39l-5.2-117.13"/><path class="cls-4" d="M2242.9,2044.35l-5.21-117.13c-.05-1.12-.06-8.09-2-8s-1.6,7.4-1.56,8.12l5.2,117.14c.05,1.11.06,8.08,2,8s1.6-7.41,1.57-8.13Z"/><path class="cls-3" d="M2139.33,15.5,2126,55.57c-2.45,7.35,9.14,10.5,11.57,3.19l13.37-40.07c2.45-7.35-9.13-10.49-11.57-3.19Z"/><path class="cls-3" d="M2086.17,147.52l-20,40.12c-3.43,6.89,6.92,13,10.36,6.05l20-40.12c3.43-6.89-6.91-13-10.36-6Z"/><path class="cls-3" d="M2045.53,324.36v33.4c0,7.72,12,7.73,12,0v-33.4c0-7.72-12-7.74-12,0Z"/><path class="cls-3" d="M2045.08,493.12l6.71,26.72c1.88,7.48,13.45,4.31,11.57-3.19l-6.71-26.72c-1.88-7.48-13.46-4.31-11.57,3.19Z"/><path class="cls-3" d="M2112.55,606.52a126.23,126.23,0,0,0,34.94,49.41c5.83,5,14.36-3.45,8.49-8.49a113.93,113.93,0,0,1-31.86-44.11c-2.82-7.09-14.43-4-11.57,3.19Z"/><path class="cls-3" d="M2241.49,711.44l40.35,26.31c6.48,4.23,12.5-6.15,6-10.36l-40.34-26.31c-6.49-4.23-12.51,6.15-6.06,10.36Z"/><path class="cls-3" d="M2382.51,783.79l26.72,13.36c6.89,3.44,13-6.91,6.06-10.36l-26.72-13.36c-6.89-3.45-13,6.9-6.06,10.36Z"/><path class="cls-3" d="M2552.54,838.05h26.72c7.73,0,7.74-12,0-12h-26.72c-7.72,0-7.73,12,0,12Z"/><path class="cls-3" d="M2712.87,851.41h20c7.72,0,7.73-12,0-12h-20c-7.72,0-7.74,12,0,12Z"/><path class="cls-3" d="M2853.16,857.4a257,257,0,0,1,96.6,21.19c7,3.06,13.12-7.27,6-10.36a272,272,0,0,0-102.65-22.83c-7.72-.18-7.72,11.82,0,12Z"/><path class="cls-5" d="M2051.15,2702c-246.54,207.21-579.88,265.17-862,147.47-322.92-134.72-436.05-440-454.31-491.9-114-90-313.35-273.25-446.17-571.55-133.8-300.5-133.95-556.77-124.26-746.29,12.49-244.43,80.3-439.86,134-564,48.33-111.78,145.91-157.54,198-195.54,54.83-40,247.2-169,755.8-205.52,185.94-13.34,450.19-16.86,767.13,31.26C2679.93,292.89,2849.4,486,2864,638.83c30.65,321.86-621.54,510.86-588,938,12,152.68,97.87,311.73,155.19,686.3,5.4,35.26,15.62,112.39-19.34,193.82C2345.43,2611.51,2162,2675.06,2051.15,2702Z"/><g class="cls-6"><path class="cls-3" d="M2846.76,2229.11c-59.38-59.38-114.31-115.79-172.2-175.17-74.22-74.22-142.51-145.48-214.67-217.36l448.86,456.71C2888.08,2272.13,2867.42,2250.81,2846.76,2229.11Z"/><path class="cls-4" d="M2846.76,2221c-51-51-101.33-102.49-151.64-154.08-50-51.3-100.61-102.08-150.81-153.22q-42-42.81-84.42-85.23s-.9,7.35-.9,8.14c0,2-.64,6.58.9,8.14l44.81,45.6,106.89,108.76,130,132.23,112,114,36.83,37.48,11.55,11.75c1.66,1.69,3.88,5.08,6,6.14.26.13.54.55.75.77-.05,0,.9-7.33.9-8.14,0-2,.64-6.57-.9-8.14q-31.17-31.92-62-64.18c.07.08-.9,7.32-.9,8.14,0,2-.63,6.54.9,8.14q30.78,32.31,62,64.18v-16.28l-44.81-45.6-106.89-108.76-130-132.23-112-114-36.83-37.48c-5.82-5.92-11.41-12.34-17.59-17.89-.26-.24-.5-.52-.75-.77v16.28c50.35,50.18,99.91,101.13,149.75,151.82q75.6,76.89,151.14,153.82,42.79,43.63,86,86.89s.89-7.35.89-8.14C2847.65,2227.16,2848.3,2222.51,2846.76,2221Z"/><path class="cls-3" d="M3011.22,2397.54q-12.21-12.45-24.43-24.85"/><path class="cls-4" d="M3011.22,2389.39q-12.21-12.42-24.43-24.84c.05,0-.9,7.33-.9,8.14,0,2-.64,6.58.9,8.14q12.23,12.42,24.43,24.85c0-.06.9-7.34.9-8.14,0-2,.64-6.58-.9-8.15Z"/><path class="cls-3" d="M2908.75,2293.29c26,26.62,52,53,78,79.4Z"/><path class="cls-4" d="M2908.75,2301.43q38.91,39.83,78,79.4c-.05,0,.89-7.34.89-8.14,0-2,.64-6.58-.89-8.14l-68.24-69.43-9.8-10c.06,0-.89,7.34-.89,8.14,0,2-.64,6.58.89,8.14l68.24,69.43,9.8,10v-16.28q-39.06-39.66-78-79.4c.06.06-.89,7.33-.89,8.14C2907.86,2295.27,2907.22,2299.86,2908.75,2301.43Z"/><path class="cls-3" d="M2524.32,1957.05c-66.12-56.12-155.86-82.3-234.84-68.49-2.81,29.18,36.86,46.59,67,52.55l156.85,31c-47.37-32.68-103.41-51.54-158-53.19"/><path class="cls-4" d="M2524.59,1949.25c-50.45-42.59-115-69.29-181.18-72.15a254.9,254.9,0,0,0-54.13,3.37c-1.2.21-1.36,3.27-1.42,4-1,13.51,1.26,26.73,10.64,37,9,9.84,21.63,16.23,33.95,20.85,15.7,5.89,32.33,8.47,48.72,11.71l61.76,12.22,70.58,14c1.91.38,2.21-14.43.08-15.89-46.65-32-101.79-51.57-158.49-53.46-2.3-.08-2.47,16.06.4,16.16,56.27,1.88,111.21,21.16,157.53,52.91l.08-15.89L2401.36,1942c-17.08-3.38-34.39-6.21-51.32-10.29-12.62-3-25.22-7.48-36.38-14.19a63.87,63.87,0,0,1-15.39-12.47,35.58,35.58,0,0,1-5.22-7.65,24.54,24.54,0,0,1-1.58-4c-.35-1.29-.2-2.81-.36-.76l-1.43,4c63.81-10.94,130.58,3.66,186.69,35.09a304.93,304.93,0,0,1,47.67,33.13c1.72,1.45,2-5.08,2-5.7.09-2.21.55-8.2-1.48-9.91Z"/><path class="cls-3" d="M2424.9,1839.39c-68-24.69-131.09-67.81-179.88-123,60.53,17.54,118.83,47.18,170.1,86.48-54.08-1.56-109.88-25.44-151.33-64.77"/><path class="cls-4" d="M2424.7,1831.31a443.28,443.28,0,0,1-145.28-88.15,448.4,448.4,0,0,1-34.12-34.54l-.08,15.89a520.3,520.3,0,0,1,169.62,86.2l.08-15.88c-56.07-1.85-110.2-26.21-150.86-64.5-1.64-1.54-2,5.16-2,5.7-.1,2.36-.52,8,1.48,9.92,40.87,38.49,95.42,63.19,151.81,65,2.52.08,1.94-14.47.08-15.89a523.46,523.46,0,0,0-170.58-86.75c-2-.59-1.58,14.2-.08,15.89a451.54,451.54,0,0,0,135.6,104,434.47,434.47,0,0,0,44.76,19.24c.72.27,3.4-14.78-.4-16.16Z"/><path class="cls-3" d="M2525.44,1850.76c-47.71-45.56-73.53-112.35-66.77-172.69,52.36,34.07,90.69,90.59,101.27,149.34-34.9-13.66-65.19-41.94-81.13-75.74a215.91,215.91,0,0,0,56.88,85c-50.66-23.83-81.49-87.2-66.18-136a1205.44,1205.44,0,0,1,119.39,181.75"/><path class="cls-4" d="M2525.72,1843c-42.22-40.61-71.84-101.26-65.43-160.83l-1.9,3.76c50.06,32.82,89.19,86.24,100.13,145.65l1.22-12.2c-34.67-13.8-64.09-40.95-80.21-74.66-1.44-3-2.21,1.92-2.34,3a25.16,25.16,0,0,0,.9,11,220,220,0,0,0,57.32,85.81l.08-15.89c-23.56-11.27-42.91-30.86-55.06-53.9-10.87-20.62-16.83-44.24-9.86-67.06l-1.34.85a1209.71,1209.71,0,0,1,118.95,181c1.55,2.89,2.21-1.8,2.35-3,.37-3.11.65-8.13-.91-11a1220.45,1220.45,0,0,0-119.83-182.55c-.62-.78-1.21.41-1.34.85-13.62,44.58,2.31,96,35,128.27a120.16,120.16,0,0,0,32.4,22.77c.94.44,2.28-13.85.08-15.89a215.64,215.64,0,0,1-56.44-84.2l-1.44,14a155.23,155.23,0,0,0,82,76.82c1.76.7,1.38-11.35,1.22-12.2-11.47-62.32-49.5-118.33-102.41-153-1.52-1-1.83,3.09-1.9,3.76-5.65,52.43,8.69,106,38.37,149.44a224.49,224.49,0,0,0,29.74,35.09c1.63,1.57,2-5.17,2-5.7.1-2.38.52-8-1.48-9.91Z"/><path class="cls-3" d="M2364,1714.83l-87-78.64"/><path class="cls-4" d="M2364.23,1707l-87-78.64c-1.67-1.51-2,5.13-2,5.7-.1,2.3-.54,8.09,1.48,9.91l87,78.64c1.67,1.52,2-5.12,2-5.69.1-2.31.54-8.1-1.48-9.92Z"/><path class="cls-3" d="M2379,1720.37,2317.88,1689c-18.46-9.47-37.19-19.12-52.88-33-37-32.64-50.69-82.14-62.28-128q43.41,38.2,86.58,76.68c33.64,30,68.4,61.75,85.83,102.18-8.44,1-16.55-5.7-23.28-11.86l-82.71-75.74c6.19-1.56,13.53.31,18.85,4.81"/><path class="cls-4" d="M2378.79,1712.29l-54.12-27.76c-17.22-8.83-34.78-17.38-50.35-29-26.9-20-43.71-49-55-80.07-6.3-17.39-11-35.3-15.52-53.22l-1.38,13.55q39.72,35,79.26,70.17c22.9,20.39,46.21,40.69,65.62,64.55,10.8,13.28,20.21,27.63,27.08,43.34l.52-15.08c-10.51.66-18.54-7.68-25.71-14.25L2322.38,1660l-53-48.49-.07,15.88a22,22,0,0,1,18.37,4.53c1.77,1.39,2-5,2-5.7.09-2.11.56-8.31-1.47-9.91-5.61-4.39-12.24-6.55-19.33-5.08-3,.61-1.88,14.24-.08,15.89l54.41,49.82q13.42,12.3,26.85,24.58c7,6.36,15.08,14.11,25.21,13.48,3.06-.2,1.26-13.4.52-15.09-12.16-27.78-31.72-51.21-53.14-72.35-23.71-23.39-49.24-45-74.16-67.09q-22.74-20.16-45.55-40.23c-1.41-1.24-1.85,3.36-1.9,3.76a27.79,27.79,0,0,0,.52,9.79c8.15,32.27,17,65,33.88,93.94a145.06,145.06,0,0,0,31.94,38.5c14.57,12.15,31.47,21.06,48.26,29.69q31.74,16.3,63.49,32.56c1.26.64,1.58-7.53,1.57-8.13-.05-2,.18-6.93-2-8Z"/><path class="cls-3" d="M2673.18,1984.74c-11.65-5.59-17.56-19.63-17.29-31.77s5.27-23.06,9.28-34.11a216.85,216.85,0,0,0,12.09-88.75c13.5,18.23,14.71,41.23,21.58,62.2,6.59,20.1,18.74,39.16,21.68,59.67s-8.67,43.92-29.42,42.39c-20.16-1.48-33.91-31.37-20.51-44.58a24.37,24.37,0,0,0,15.95,3.38l-2.34-9.6"/><path class="cls-4" d="M2673,1976.66c-8.57-4.41-16.54-15.12-15-25.16,2.05-13.56,9-26.29,12.73-39.45,7.79-27.34,10-55.82,8.22-84.13l-1.93,10c10.77,15,13.43,33.15,18,50.58,4.82,18.43,13.95,35,20.28,52.84,2.44,6.89,4.92,14.1,3.25,21.41a34,34,0,0,1-9.81,17.43c-10.09,9.25-24.9,7.46-33.92-2.2a32.48,32.48,0,0,1-5.77-8.5,35.73,35.73,0,0,1-1.67-4.46c-.94-3,.1.29-.31.2-.24,0,1.12-3.43,1.24-3.67.8-1.53,1.6-3,3.17-3,2-.1,5.11,2,7.21,2.46a25.09,25.09,0,0,0,8.11.28c2.91-.33,1.34-12,.91-13.83l-2.34-9.6c-.69-2.83-1.85-2.55-2.49.06a25.8,25.8,0,0,0,.28,11.43l2.33,9.6.91-13.83a25.82,25.82,0,0,1-16-3.38l-.46.31c-10.29,10.77-7.65,31.94-1.12,44,7.07,13,22.49,21.52,36.51,13.23,15.13-9,18.3-29.44,17.23-45.46-1.51-22.81-13.47-42.47-21.24-63.44-8.38-22.65-9.27-47.83-23.77-68-.95-1.32-1.61,1.9-1.67,2.12a26.62,26.62,0,0,0-.26,7.87A193.35,193.35,0,0,1,2673,1879c-2.78,15.44-7.91,29.8-13.18,44.51-7.76,21.66-10.91,56.71,13.6,69.31,1.25.65,1.58-7.53,1.56-8.12-.05-2,.19-6.94-2-8Z"/><path class="cls-3" d="M2632.1,2081.28c-13.29-24.31-43.89-39.28-69.19-33.84-21.11,4.54-39.81,21.39-61.7,14.64a459.73,459.73,0,0,0,138.07,18.62"/><path class="cls-4" d="M2632.38,2073.47c-11.42-20.3-34.33-34.78-57.8-35.21-25.78-.48-47.45,23.16-73.57,15.74-1.1-.31-3.26,15.11.4,16.17a465.28,465.28,0,0,0,138.07,18.61c2.53,0,2.25-16.21-.4-16.16A465.33,465.33,0,0,1,2501,2054l.4,16.17c25.76,7.31,47-15.68,72.23-15.76,23.72-.08,46.65,14.17,58.18,34.68,1,1.86,2-5.44,2-5.7.13-3.18.13-7.06-1.48-9.92Z"/><path class="cls-3" d="M2828.25,2132.94c-19.95-8.5-33.72-31.5-30.82-51.46s19.21-33.15,31.42-48.19,20.29-38.21,6.9-55.37c15.25,26,7.18,56.36,12.55,84.92,2.73,14.54,9,28.79,10.34,43.35s-4.18,30.57-17.86,34.35c-14.88-12.91-23.52-32.63-22.26-50.8"/><path class="cls-4" d="M2828.05,2124.86c-13.52-6-25-18.67-28.56-33.19-3.39-13.73,10.29-28.18,18.6-37.53,10.2-11.48,20.17-22.62,24.21-37.84s3.3-33.31-6.27-46.19c-1.33-1.78-2,5.37-2,5.7-.14,3.17-.14,7.07,1.47,9.91,9.17,16.14,8.46,34.2,8.89,52.14a191.11,191.11,0,0,0,2.22,27.45c1.65,9.72,4.72,19.06,7.33,28.54,2.11,7.67,4.35,15.14,1.81,22.93a26.72,26.72,0,0,1-5.13,9.27c-1.93,2.23-5.6,5.85-8.75,6-3.48.17-7.38-5.85-9.31-8.32a62.41,62.41,0,0,1-6.92-10.88c-3.23-6.49-5.74-13.7-5.33-21,.09-1.69.48-9.09-1.48-9.91s-2,4.74-2,5.7c-.9,16.34,2.67,32.87,11.62,46.7a66.84,66.84,0,0,0,7.63,9.71c1.12,1.19,2.49,3,3.9,3.78,1.74,1,2.78.35,4.69-.58,5.9-2.89,9.82-8.13,12.31-14.08,6.64-15.87,3.6-34.82-.8-50.81-2.6-9.47-5.89-18.82-7.2-28.59-1.16-8.62-1.05-17.38-1.21-26.06-.36-19.82-1.68-40-11.68-57.6l-.56,15.61c5,6.77,6.29,12.22,3.69,20.13a64.64,64.64,0,0,1-11.92,20.81c-9.85,11.93-21.74,22.55-27.84,37.09-11.83,28.21.79,64.7,29,77.27,1.34.6,1.58-7.5,1.56-8.12,0-1.87.19-7.09-2-8Z"/><path class="cls-3" d="M2769.76,2209.46c-10.68-16.15-34.67-15.16-50.25-7.12s-29.18,21-47.46,21.92c14.35-6.07,32.29-.55,47.58,7.08s30.1,17.51,46.44,20.79c4.63.92,9.53,1.26,13.52-.59,9.79-4.56,7.93-21.11-1.82-28s-23.07-5-31.26,1.77a15.56,15.56,0,0,0,9.37,11.5"/><path class="cls-4" d="M2770,2201.65c-9.94-14.26-29.3-15.42-44.53-10.05-18.89,6.65-32.74,23.1-53.66,24.58l.4,16.17c28.56-11.24,56.61,14.43,81.61,24.14,9.87,3.83,27.28,9.26,32.32-4,3.69-9.78,2.3-24.48-4.18-32.9-8.78-11.4-25.72-10.2-36.15-2.05-2.63,2.06-1,10.88-.45,13.53,1.34,6.27,4.78,11.13,10.68,13.83,1.33.61,1.58-7.5,1.57-8.12-.05-1.89.18-7.06-2-8-3.83-1.76-7.16-4.92-8.06-9.16l-.45,13.53c10.18-8,27.88-8.52,35.33,3.59.69,1.12,1,2.47,1.67,3.57q.52,2.43.22-.71c.15-2,0-2.33-.34-1-2.44,2.31-2.44,4.27-6.19,5.52-6.9,2.3-15.4-.47-22-2.81-26-9.27-54.63-36.64-84.06-25.06-2.79,1.1-1.93,16.33.4,16.17,20.48-1.45,34.17-17.19,52.48-24.16,15-5.72,34.76-5.26,44.75,9.08,1.27,1.81,2-5.4,2-5.7.12-2.93.31-7.35-1.48-9.92Z"/><path class="cls-3" d="M2918.56,2268.61c-9.32-26.86-7-56.16,6.23-78.65,13.83,26.11,21,55,20.57,82.93"/><path class="cls-4" d="M2919.28,2261.61a76.55,76.55,0,0,1,6.17-63.87l-1.38-.78c11.85,22.64,19.79,48.08,19.54,73.82,0,1.73-.54,9.07,1.48,9.92s2-4.74,2-5.7c.31-32.07-6.71-63.56-21.61-92-.14-.26-.84-1.73-1.38-.78-16.05,27.92-16.42,63.41-6.29,93.43,1.11,3.31,2.25-2.22,2.34-3a25.94,25.94,0,0,0-.9-11Z"/><path class="cls-3" d="M2899.81,2368.64c-10.27-18.31-35.9-20.94-54.86-16.25s-37.61,13.9-57.69,9.17c37,23.61,82.92,31,121.54,19.63a24.46,24.46,0,0,1-17.36-2.75"/><path class="cls-4" d="M2900.08,2360.84c-9.29-15.79-29-20-46-18.16-22.87,2.43-43.36,15.89-67,10.8-1.77-.38-2.35,14.46-.08,15.89,35.9,22.61,80.76,31.79,122,19.9,3.19-.92,1.38-16.52-.4-16.17a25.67,25.67,0,0,1-17.36-2.74c-1.24-.65-1.58,7.54-1.56,8.13,0,2-.19,6.91,2,8a25.67,25.67,0,0,0,17.36,2.74l-.4-16.17c-40.73,11.74-85.54,3-121.07-19.35l-.08,15.89c23.19,5,43.33-7.83,65.72-10.65,17.07-2.15,37,1.54,46.36,17.46,1.09,1.86,2-5.44,2-5.7.13-3.13.17-7.11-1.48-9.91Z"/><path class="cls-3" d="M2943.42,2525.2l23.52-11.39C2957.13,2514.16,2948.57,2517.34,2943.42,2525.2Z"/><path class="cls-4" d="M2943.42,2533.34l23.52-11.39c2-.95.77-16.32,0-16.28-9.56.47-18.14,3.6-23.76,11.68-1.51,2.17-.7,7.49-.62,10,0,.87.58,6.44,1.1,5.69,5.42-7.81,14.13-10.64,23.28-11.1v-16.28l-23.52,11.39c-1.4.68-.89,6.85-.89,8.14C2942.53,2525.8,2943.09,2533.5,2943.42,2533.34Z"/><path class="cls-3" d="M2989.21,2502.92l-22.49,10.89c11.8-.42,25.4,3.26,37,7.91,2.63,1.06,5.33,2.13,8.07,3.17"/><path class="cls-4" d="M2989.21,2494.78l-22.49,10.89c-1.91.92-.87,16.3,0,16.28,15.94-.32,30.48,5.46,45.09,11.08-.57-.22,2.89-15.16,0-16.28-14.61-5.62-29.15-11.4-45.09-11.08V2522l22.49-10.89c1.41-.68.9-6.85.9-8.14,0-.6-.56-8.31-.9-8.14Z"/><path class="cls-3" d="M2277.09,1636l28.34,14.89c-16,1.42-33.39-4.53-46.34-15.84a288.07,288.07,0,0,0,50.14,39.24q-36.37-44.57-69.07-91.7a441.25,441.25,0,0,1,97.32,97.79"/><path class="cls-4" d="M2277.29,1644.05l28.34,14.89-.4-16.17c-16.78,1.26-33.13-4.71-45.86-15.56-1.72-1.46-2,5.08-2,5.7-.1,2.4-.51,8,1.48,9.91a294.94,294.94,0,0,0,50.14,39.24c1.89,1.18,2-4.83,2-5.69.12-2.73.41-7.6-1.48-9.92q-36.28-44.51-69.07-91.7l-.55,15.61a445.39,445.39,0,0,1,97.32,97.8c1.3,1.8,2-5.38,2-5.7.12-2.88.34-7.41-1.47-9.91a445.44,445.44,0,0,0-97.33-97.8c-1.8-1.32-2,5-2,5.7-.12,2.93-.31,7.34,1.48,9.91q32.74,47.17,69.07,91.7l.55-15.61a294.87,294.87,0,0,1-50.13-39.24l-.56,15.61c13,11.06,29.68,17.4,46.82,16.12,2.82-.21,2-14.9-.4-16.17l-28.34-14.88c-1.24-.65-1.58,7.53-1.56,8.12.05,2-.19,6.92,2,8Z"/><path class="cls-3" d="M2241.75,1605.37l112.67,84.78"/><path class="cls-4" d="M2241.47,1613.18,2354.14,1698c1.79,1.35,2-5,2-5.7.09-2.06.56-8.38-1.48-9.91L2242,1597.57c-1.79-1.35-2,5-2,5.7-.08,2.06-.56,8.38,1.48,9.91Z"/></g><path class="cls-7" d="M2991.87,1810.22l-86-132.35-85.8-132-48.43-74.49"/><path class="cls-7" d="M2829.75,1627.81c-65.25-86.78-158-150-242.61-165.35-5.38,30.78,35.11,65.09,66.47,83.21L2816.87,1640c-47.38-54-105.06-96.16-162.65-119"/><path class="cls-7" d="M2734.38,1461c-69.87-53.2-133-124.6-180-203.64,62.54,42.5,121.73,97.35,172.68,160-57-22.56-114.06-70.15-154.64-129.08"/><path class="cls-7" d="M2839.74,1512.17c-46.67-68.14-68.45-151-56.31-214.31,52.54,57.39,88.39,133.88,94.71,202.12-35.77-28.37-65.45-70.94-79.5-114,9.43,39.1,28,79.18,53.1,114.76-51.58-45.57-78.94-126.66-58.72-174a1912,1912,0,0,1,111.19,244.51"/><path class="cls-7" d="M2680.26,1301.47l-85.44-119.42"/><path class="cls-7" d="M2695.7,1313.31l-62-57.79c-18.73-17.45-37.74-35.21-53.18-56.39-36.38-49.89-46.8-109.24-55.25-163.83q42.73,58.46,85.19,117.12c33.09,45.72,67.2,93.81,82.29,144.68-9-2.2-17-12.61-23.64-21.94l-81.18-114.59c6.68.68,14.29,5.56,19.54,12.51"/><path class="cls-7" d="M2967.41,1704.37c-1.29-7.55-2.73-15.09-4.37-22.59a7.18,7.18,0,0,1,2.51-7.46c-2.81-37.28-3.78-74.68-4.11-112.13-1.82,28.91-8.46,55.51-19.61,78.23-5.15,10.52-11.35,20.51-12.64,33.67s3.8,30.77,15.66,41.36l.12-.33c4.39,7.77,10.66,14.5,18,17.77m33.34-48.51,3.57-9.64,1.68,11.39A25.68,25.68,0,0,1,2996.34,1684.38Z"/><path class="cls-7" d="M2933.43,1805c-12-31.67-43.16-59.82-70.35-63.63-22.7-3.18-43.86,8-66.45-7.81,47,32.05,96,57,144.44,73.58"/><path class="cls-7" d="M2963.83,1976.57a45.28,45.28,0,0,0,13.48,2A34.85,34.85,0,0,0,2963.83,1976.57Z"/><path class="cls-7" d="M2594.94,1181.86l28.73,27.18c-17-4.61-34.93-17.81-47.68-35.17a474.58,474.58,0,0,0,49.76,62.19q-34.77-62.68-65.44-126.77a727,727,0,0,1,94.81,144.32"/><path class="cls-7" d="M2560.11,1134.82l112.1,136"/><path class="cls-7" d="M2184.74,2245.14c-31.81-22.83-63.16-45.15-94.85-67.28Z"/><path class="cls-7" d="M2184.74,2240.64q-47.23-33.9-94.85-67.28c.84.59-1.82,7.71,0,9l83.1,58.94,11.75,8.34c-.85-.6,1.83-7.7,0-9l-83.09-58.94-11.76-8.34v9q47.67,33.3,94.85,67.28a43.32,43.32,0,0,0,.49-4.5C2185.23,2244.25,2185.6,2241.26,2184.74,2240.64Z"/><path class="cls-7" d="M3014.19,2833.5l-829.45-588.36c29.07,20.87,58.53,42.16,89,64.13,259.13,182.83,494.54,350.31,740.44,524.27Z"/><path class="cls-7" d="M3014.19,2829,2992,2813.27l-60.36-42.82-89.27-63.33-108.93-77.26-119.31-84.63-120.43-85.43-112.29-79.64-94.87-67.3-68.19-48.38-21.09-14.95c-3.64-2.59-7.26-5.76-11.17-7.92a16,16,0,0,1-1.36-1c.85.6-1.82,7.69,0,9q82.41,59.16,165.11,117.86,82.26,58.13,164.44,116.33,80.4,56.94,160.76,113.92,79.6,56.43,159.21,112.87,79.88,56.61,159.81,113.19l20.12,14.23a19.7,19.7,0,0,0,.48-3.3v0c0-1,.52-4.85-.35-5.54-.5-.4-.6,2.9-.61,3.14v0l.48-3.31q-80-56.62-160-113.32-79.6-56.4-159.17-112.84-80.22-56.87-160.45-113.71-81.9-58-163.86-116-83.22-58.81-166-118.23l-20-14.35v9l22.18,15.73,60.36,42.82,89.27,63.32,108.93,77.27,119.31,84.63,120.43,85.43,112.29,79.64,94.87,67.3,68.2,48.37,21.08,15c3.64,2.59,7.26,5.76,11.17,7.92a16,16,0,0,1,1.36,1C3013.34,2837.4,3016,2830.3,3014.19,2829Z"/><path class="cls-7" d="M2201.58,2301.83c-92.64-56.63-202.12-81.21-286.47-64.33,6.34,30.6,56.63,47.58,92.45,52.87L2194.11,2318c-63.93-32.7-133.1-50.68-195.06-50.71"/><path class="cls-7" d="M2201.73,2297.52c-67.92-41.36-147.36-68.82-227.4-69.7A290.16,290.16,0,0,0,1915,2233c-1.66.33-.74,6.55-.5,7.64,6.59,29.41,43.19,42.4,68.82,49.15,19.21,5.07,39.1,7.19,58.72,10.09l71.67,10.59,80.51,11.9c1.13.17,1.29-8.16-.22-8.93-60.12-30.61-127.25-50.51-195.06-50.71-1.35,0-1.3,8.93.22,8.94,67.81.2,134.94,20.1,195.06,50.7l-.22-8.93L2055.56,2293c-36.11-5.34-74.1-8.12-107.18-24.95-13.78-7-29.06-17.7-32.65-33.74l-.51,7.64c74.3-14.65,153.34,1.89,222.06,31.16a501.85,501.85,0,0,1,64.15,33c.79.49,2-7.57.3-8.62Z"/><path class="cls-7" d="M2051.45,2181.89c-84.55-23.71-169.54-66.83-242.37-123,73.8,16.47,149,45.65,219.5,85.14-61.35.05-131.89-23.18-191.32-63"/><path class="cls-7" d="M2051.34,2177.42c-68.18-19.22-133.21-49.45-192.65-87.89q-25.44-16.44-49.46-34.94l0,8.78c76.89,17.25,150.79,46.73,219.51,85.14l-.22-8.93c-67.82-.16-135.13-25.57-191.06-62.87-.7-.47-2.05,7.46-.31,8.63,56.12,37.42,123.53,63,191.59,63.17,1.48,0,1.1-8.19-.22-8.93-68.71-38.42-142.62-67.89-219.5-85.14-1-.24-1.16,7.92,0,8.78a736.2,736.2,0,0,0,186.34,104.52q27.72,10.56,56.3,18.61c.61.17,1.8-8.36-.22-8.93Z"/><path class="cls-7" d="M2168.26,2190.65c-68.5-46.15-119.29-115.19-131.32-178.49,70,34,131.5,91.9,162.52,153-43.7-13.19-87-41.82-115.91-76.67,23.18,32.88,55.19,63.3,91.65,87.11-64.74-23.34-120.06-88.65-118.71-140.14A1914.1,1914.1,0,0,1,2250,2221.79"/><path class="cls-7" d="M2168.41,2186.33c-49.36-33.43-92.92-79.62-117.22-134.57a200.55,200.55,0,0,1-13.64-42.78l-.5,7.65c53.28,26,101.46,64.66,136.94,112.32a284.63,284.63,0,0,1,25.08,40.08l.28-8.33a246.6,246.6,0,0,1-115.64-76.52c-.8-1-1.11,2.93-1.13,3.14-.08,1.6-.17,4.09.82,5.48,24.55,34.62,56.23,63.86,91.65,87.12l0-8.78c-46.32-16.94-89.83-54-109.59-99.81-4.69-10.88-8.26-22.76-8-34.71l-1.12,3.15a1942.12,1942.12,0,0,1,153.31,143.14q20.43,21.27,40.15,43.2c.83.92,1.11-2.92,1.12-3.15.08-1.42.25-4.3-.81-5.48a1902.46,1902.46,0,0,0-147.75-146.84q-22.56-20.1-45.72-39.5c-.94-.79-1.12,3-1.12,3.15-.93,51.27,37.56,96.88,77.86,124.17a193.11,193.11,0,0,0,41.93,21.61c.62.23,1.46-7.85,0-8.78-35.41-23.25-67.09-52.5-91.64-87.11l-.31,8.62a247.84,247.84,0,0,0,116.17,76.83c1.2.37.69-7.56.29-8.34-26.72-52.25-69.89-95.71-118.46-128a387,387,0,0,0-44.57-25.56c-1-.48-.62,7-.5,7.65,11,56.44,46.76,106.7,88.28,145.15A364.68,364.68,0,0,0,2168.1,2195c.68.47,2.05-7.44.31-8.63Z"/><path class="cls-7" d="M1942.35,2053.53,1818.93,1974"/><path class="cls-7" d="M1942.51,2049.22l-123.42-79.53c-.74-.48-2,7.5-.31,8.63l123.42,79.53c.74.47,2-7.51.31-8.63Z"/><path class="cls-7" d="M1961.07,2058.86,1882.13,2028c-23.85-9.33-48.06-18.84-70.22-32.84-52.2-33-83.76-84.3-111.73-132q61.27,38.61,122.36,77.5c47.6,30.31,97,62.44,129.8,104.18-9.18,1.27-20.48-5.45-30-11.69l-117.7-76.62c6.46-1.82,15.33-.09,22.77,4.44"/><path class="cls-7" d="M1961,2054.39l-69.76-27.28c-21.94-8.58-44.1-16.87-64.9-28-37-19.84-66.4-49.93-90.5-84-12.82-18.11-24.24-37.14-35.47-56.25l-.3,8.63q56.23,35.43,112.31,71.1c32.57,20.72,65.48,41.26,95.29,65.9,16.25,13.43,31.46,28.12,44.56,44.67l0-8.78c-13.06,1.24-25.29-8.6-35.59-15.31l-37.3-24.28-74.59-48.56,0,8.78c7.92-1.9,15.88.47,22.77,4.44,0,0,2-7.69-.22-8.94-6.88-4-14.85-6.34-22.77-4.44-1.51.37-1.2,8,0,8.78l76.25,49.65,38.13,24.82c9.75,6.35,21.34,15.16,33.63,14,1.73-.17.8-7.83,0-8.79-23.49-29.7-53.63-53.28-84.66-74.62-33.88-23.29-69-44.79-103.76-66.78q-31.85-20.17-63.74-40.27c-1.22-.77-1,7.44-.3,8.63,20.19,34.37,41.27,68.69,69.3,97.33a234.24,234.24,0,0,0,49.07,38.65c20.24,11.82,42.07,20.44,63.83,29l79,30.88c.34.13,1.9-8.11-.22-8.94Z"/><path class="cls-7" d="M2378.05,2326.16c-14.92-5.48-26.14-20-29.79-32.69s-1.57-24.27-.65-35.95c2.3-29.26-2.93-61.14-15.28-93.17,21.11,18.64,30,42.65,44.51,64.36,13.95,20.81,33.82,40.36,43.81,61.72s4.54,46.2-19.29,45.25c-23.17-.93-48.36-31.75-37.59-46,6.47,2.94,13.38,4,19,3l-5.75-10"/><path class="cls-7" d="M2377.94,2321.69c-12.12-4.71-22.09-14.76-27.3-26.65-6.45-14.74-1.85-31.13-1.56-46.59.56-30.13-5.64-59.89-16.36-88l-.55,8.18c15.75,14.15,25.51,32.5,36,50.56,10.73,18.47,24.51,34.36,37.24,51.4,9.74,13.06,26.18,34.4,15.65,51.22-9.06,14.48-28.85,9.81-40.44,1.5-7-5-13.46-12-16.86-20-1.1-2.59-3.2-9.07,1.74-8.51,2.69.31,5.44,1.87,8.2,2.3a30.32,30.32,0,0,0,9.22,0c1.88-.27.65-7.73,0-8.78l-5.75-10c-.59-1-1.11,3-1.12,3.15-.09,1.73-.08,3.93.82,5.48l5.75,10,0-8.78c-6.61.95-12.95-.43-19-3l-.26.17c-8.87,12.65.35,30.89,9.64,40.34,10.91,11.11,31.95,21.54,45.54,8.65,11.79-11.18,8.81-33.26,3-46.58-9.87-22.73-28.64-40.49-42.67-60.57-15.7-22.49-25.66-48.51-46.45-67.2-1-.87-.92,7.21-.55,8.19a233.48,233.48,0,0,1,13.56,51.42c2.22,16.17,1.34,31.75.12,47.92-1,13-.41,26.49,5.69,38.27,5.76,11.1,15.14,20.24,26.86,24.79.35.14,1.9-8.11-.22-8.93Z"/><path class="cls-7" d="M2363.26,2428.38c-22.86-25-62.16-39.71-88.85-33.23-22.26,5.4-37.82,23.6-64.64,17.22,55.52,12.47,110.22,17.61,161.38,15.18"/><path class="cls-7" d="M2363.42,2424.07c-18.86-20.31-47.63-35-75.71-34.91-13.66,0-25.31,5.52-37.33,11.4-13.15,6.44-26,10.6-40.72,7.35-.77-.17-1.72,8.5.22,8.93,52.89,11.8,107.18,17.66,161.38,15.18,1.47-.07,1.18-9-.22-8.93-54.2,2.48-108.49-3.39-161.38-15.18l.22,8.93c14.7,3.25,27.58-.9,40.72-7.34,11.59-5.68,22.9-11.1,36.05-11.39,28.33-.63,57.46,14.14,76.46,34.58.85.92,1.11-2.9,1.12-3.14.08-1.4.26-4.33-.81-5.48Z"/><path class="cls-7" d="M2600.73,2476.3c-25.2-8.26-48.18-31.88-51.42-52.85-3.21-20.82,10.83-35.26,19.66-51.36s10.39-40.59-10.25-58.12c25.6,26.68,26.42,58.72,41.75,88.41,7.8,15.12,19.52,29.83,25.75,45s5.24,32.09-8.92,36.47c-20.93-13-37.07-33.39-41.57-52.42"/><path class="cls-7" d="M2600.62,2471.84a86.09,86.09,0,0,1-35.78-23.75c-9.49-10.48-18-24.34-13.53-38.86,3.85-12.65,12.91-22.72,18.82-34.35a58.46,58.46,0,0,0,5.87-30,49.48,49.48,0,0,0-17.13-35.18c-.48-.42-1.76,7.08-.3,8.63,11.53,12.25,18.91,26.88,24.48,42.63,5.3,15,9.44,30.4,16.66,44.61,8,15.85,19.85,29.79,26.37,46.4,2.73,6.94,4.39,14.8-.24,21.33-1.59,2.24-4.57,5.3-7.43,5.71-3.82.56-9.08-4.95-11.86-7.21-13.68-11.11-25.87-26.12-30.21-43.5-.46-1.85-.82-1.08-1.38,0-.75,1.51-.24,4.73.16,6.31,4.3,17.22,15.3,32.15,28.58,43.65a107.05,107.05,0,0,0,11.33,8.55c2,1.34,2,1.7,4.17.86a16.54,16.54,0,0,0,4.32-2.56c5.2-4.19,6.87-11,7.24-17.38,1-17.94-7.94-33.28-17.16-48-5.82-9.26-11.74-18.44-16.18-28.48-3.68-8.34-6.54-17-9.39-25.66-6.7-20.4-14.18-40.07-29.16-56l-.3,8.63c10.25,9,17.6,21.79,15,35.76-2.36,12.51-10.58,22.41-16.81,33.16-6.45,11.12-9.87,22.9-8.54,35.82,1.2,11.78,6.82,22.44,14.35,31.41a87.2,87.2,0,0,0,38.3,26.33c.46.16,1.86-8.23-.22-8.93Z"/><path class="cls-7" d="M2559.84,2558.13c-17.28-16.55-43.93-14.77-58.85-5.88s-26,22.86-46.26,24.4c14.18-6.8,36.15-1.58,55.83,5.92s39.56,17.38,59,20.29c5.51.83,11.14,1,15-1,9.53-5.06,2-22.31-11.17-29.25s-27.58-4.53-34.59,2.82c2.47,5.12,8.28,9.89,14.28,11.73"/><path class="cls-7" d="M2560,2553.82c-14.11-13.06-35.28-16-53-9-8.3,3.29-15.23,9.23-22.35,14.46-9.12,6.71-18.58,11.84-30,12.91l.21,8.94c14.25-6.4,31.39-2.2,45.56,2.31,17.11,5.45,33.22,13.61,50.29,19.2,9,2.95,33.88,12,38.37-1.61,3.25-9.9-1.64-21.37-8.91-28.09-11-10.13-30.4-12.91-41.69-1.84-1.33,1.31-.86,6.63,0,8.17a26.12,26.12,0,0,0,14.79,12.33c.45.16,1.87-8.21-.22-8.93a24.53,24.53,0,0,1-13.77-11.14l0,8.17c11.65-11.41,32.2-7.47,42.52,3.74,2.5,2.71,4,5.64,5.64,8.87,1,2-1.11,4.41-4.22,5.66-7.71,3.09-18.15-.09-25.73-2.17-18.51-5.07-35.65-14-53.77-20.16-15.07-5.14-33.69-10.32-49-3.45-1.52.68-1.06,9.06.21,8.94,10.12-.95,18.87-5,27.13-10.8,7.9-5.49,15.21-12.32,24.15-16.13,17.64-7.52,39.34-4.91,53.57,8.26.34.32,2-7.06.3-8.63Z"/><path class="cls-7" d="M2746.48,2615.36c-19.22-27.79-26.15-58.51-18.59-82.43,24.06,26.87,41.53,56.86,50.13,86.08"/><path class="cls-7" d="M2746.63,2611.05c-8.46-12.41-15.28-26.07-18.7-40.76a68.36,68.36,0,0,1-1.84-21.46,58.2,58.2,0,0,1,1.46-8.79c.79-3.17,1.19-1.49,2.65,0s2.83,3.29,4.2,4.94c18.89,22.74,34.49,48.78,43,77.21.54,1.79.8,1.15,1.38,0,.72-1.45.3-4.81-.15-6.32-9.78-32.6-28.08-61.9-50.6-87.22-.35-.4-.65.19-.74.47-9.42,31.07,1.33,64.66,19,90.6.69,1,1.12-3,1.13-3.15.08-1.63.15-4.06-.82-5.48Z"/><path class="cls-7" d="M2757.94,2720.54c-17.51-18.82-47.21-20.78-67-15.29s-37.79,15.7-61.92,11.38c49.36,23.54,103.38,29.86,143.12,16.75-5.85,1.56-13.35.7-20.43-2.33"/><path class="cls-7" d="M2758.09,2716.23c-15-15.64-38.08-20.4-59-17.21-10.93,1.66-21.21,6.08-31.71,9.38-12.64,4-25.34,5.94-38.52,3.77-1.06-.18-1.37,8.18.22,8.93,43.36,20.49,96.29,31.88,143.12,16.75,1.79-.58.68-9.15-.22-8.94-7,1.6-13.88.31-20.43-2.33-.31-.12-1.9,8.08.22,8.94,6.56,2.64,13.46,3.93,20.43,2.33l-.22-8.94c-46.83,15.14-99.76,3.74-143.12-16.74l.22,8.93c12.64,2.09,24.88.41,37-3.3,10.61-3.25,21-7.79,31.94-9.65,21-3.55,44.53.92,59.66,16.71.87.9,1.11-2.89,1.13-3.15.07-1.38.26-4.35-.82-5.48Z"/><path class="cls-7" d="M2912.94,2713.93c-3.88,3.31-12.91.15-18.12-4.9s-7.58-11.21-9.71-17l-11.39-31c-3.08-8.36-2.09-20,7.68-16.4a20.24,20.24,0,0,1,6.58,4.58c26.89,25.89,17.06,65.26,49.14,86-32.08-20.52-56.13-52.52-61.33-81.64-2.09-11.65-1.36-22.77-4.6-34.58-3.32-12.07-10.82-24.57-21.28-35.43q34.52,52.71,75.58,103.64"/><path class="cls-7" d="M2912.58,2709.63c-5.13,3.55-13.26-1-17.1-4.46-5.3-4.78-7.9-11.39-10.31-17.93q-4.53-12.3-9-24.59c-1.55-4.21-6.13-14.57,2.51-14.18,6.33.29,11.71,7.24,15.25,11.9a72.15,72.15,0,0,1,9.1,16.27c4.33,10.49,6.86,21.61,10.9,32.21,4.73,12.45,11.85,23.2,23.08,30.65l.31-8.63c-24.63-15.93-46.8-39-57.14-66.89-5.57-15-4.11-31-7.86-46.33-3.58-14.64-12-27.57-22.21-38.42-.86-.91-1.11,2.89-1.13,3.15-.08,1.65-.14,4,.82,5.48q35.19,53.66,75.57,103.63c.78,1,1.12-2.95,1.13-3.15.08-1.5.21-4.19-.82-5.48q-40.24-50-75.57-103.63l-.31,8.63c12,12.64,20.83,27.63,22.82,45.15,1.62,14.25,2.35,27.87,7.78,41.32,10.94,27.06,32.37,49.49,56.61,65.17.73.48,2-7.48.31-8.63-12.34-8.19-19.36-20.17-24.1-33.92-4.48-13-7.56-26.51-14.52-38.5-3.37-5.81-21.26-29.46-26.5-13.93-1.75,5.2-1.17,11.64.1,16.89,2.17,8.93,6.26,17.66,9.44,26.28s5.78,18.31,12.39,25.06c4.41,4.5,13.18,9.66,19.22,5.48,1.65-1.14.05-9.14-.73-8.6Z"/><path class="cls-7" d="M2927.82,2722.57a603.93,603.93,0,0,0-30.32-64.86"/><path class="cls-7" d="M2928.22,2718.7a620.51,620.51,0,0,0-30.32-64.86c-.86-1.6-1.2,1-1.3,1.63-.24,1.68-.35,4.53.5,6.11a622.63,622.63,0,0,1,30.33,64.86c.7,1.78,1.22-1.17,1.29-1.63a12.8,12.8,0,0,0-.5-6.11Z"/><path class="cls-7" d="M2985.92,2869c-8-14.14-28.51-23.3-44.24-23.47s-27.79,6.32-39.22,12.67L2858,2882.89c7.12-18.45,40.28-13.76,67-5.52s58.66,17.67,73.17,4.09"/><path class="cls-7" d="M2986.08,2864.64c-10.75-18.08-35.68-26.48-55.67-22.6-12,2.33-22.62,8.63-33.19,14.51l-39.38,21.87.7,8.31c4.28-10.2,16.49-12.15,26.33-12.14,13.37,0,26.74,3.17,39.47,7,13.74,4.17,27.56,8.6,41.86,10.44,11,1.41,23.49,1.47,32.26-6.31,1.63-1.44-.22-9.05-.73-8.6-9.5,8.42-23.85,7.31-35.51,5.43-14.49-2.35-28.31-7.18-42.38-11.16-12.57-3.55-26-6.45-39.09-5.67-9.69.58-19.37,3.72-23.38,13.28-.39.91-.13,8.77.69,8.32l37.66-20.93c10.64-5.91,21.29-12.43,33.3-15.12,20.29-4.54,45.75,3.45,56.75,22,.61,1,1.11-3,1.12-3.15.09-1.71.1-3.95-.81-5.48Z"/><path class="cls-7" d="M1819,1973.77l36.73,14.69c-17.53,2-39-3.69-57.29-15.12a475.06,475.06,0,0,0,69.17,39.47q-55.42-45.46-107.54-93.74a727.51,727.51,0,0,1,141.31,99.24"/><path class="cls-7" d="M1819.08,1978.24l36.73,14.69-.22-8.94c-20,2-40.16-4.59-57-15-.8-.49-2,7.49-.3,8.63a485.73,485.73,0,0,0,69.43,39.63c.47.22,1.39-7.68,0-8.78q-55.15-45.27-107.55-93.74l0,8.78a728.66,728.66,0,0,1,141,99.08c.38.34,2-7.1.31-8.63a732.34,732.34,0,0,0-141.57-99.39c-.36-.19-1.35,7.58,0,8.78q52.36,48.46,107.55,93.75l0-8.78a482.41,482.41,0,0,1-68.91-39.33l-.3,8.63c17.07,10.5,37.32,17.32,57.55,15.28,1.5-.15,1.22-8.36-.22-8.94l-36.73-14.68c-.32-.13-1.9,8.08.22,8.93Z"/><path class="cls-7" d="M1769.25,1942.88,1923.59,2028"/><path class="cls-7" d="M1769.36,1947.35l154.34,85.15s2-7.74-.22-8.94l-154.34-85.15s-1.94,7.74.22,8.94Z"/><g class="cls-8"><path class="cls-3" d="M2562.56,2928.15c-211.13-94.7-423.41-185.26-635.33-279.16"/><path class="cls-3" d="M2562.56,2923.65q-123.33-55.32-247.26-109.27-123.84-54.15-247.77-108.14-70.2-30.73-140.3-61.75c.44.2-1.67,8.26,0,9q123.7,54.81,247.82,108.7,123.87,54,247.61,108.3,70.05,30.87,139.9,62.16c-.45-.21,1.68-8.25,0-9Z"/><path class="cls-3" d="M2723.89,2999.66l-46.25-20.32,46.16,20.32Z"/><path class="cls-3" d="M2723.89,2995.16l-46.25-20.32c.44.19-1.66,8.26,0,9l24,10.55,11.54,5.08c2.68,1.18,7.92,4.7,10.74,4.69.74,0,.74-9,0-9-2.82,0-8.06-3.51-10.74-4.69l-11.54-5.08-24-10.55v9l46.25,20.32C2723.46,3004,2725.56,2995.89,2723.89,2995.16Z"/><path class="cls-3" d="M2061.62,2747.9c-102.16-36.79-214.34-38.8-293.56-5.26,12.37,28.7,65,35.19,101.21,33.15l188.28-10.6c-69.21-19.13-140.59-22.8-201.28-10.34"/><path class="cls-3" d="M2061.51,2743.44c-75-26.85-158.54-37.66-237.19-22.2a289.54,289.54,0,0,0-56.37,16.94c-1.78.75-.87,7-.28,8.33,5.54,12.31,17.1,19.79,29.3,24.58,15.14,5.95,31.67,8.32,47.84,9.19,19.74,1.06,39.55-.86,59.25-2l72.34-4.08,81.26-4.57c1.38-.08,1.32-8.51-.22-8.93-65.06-17.86-134.81-23.82-201.28-10.35-1.78.36-.77,9.13.22,8.94,66.47-13.47,136.22-7.51,201.28,10.34l-.22-8.93-141.7,8c-36.24,2-73.76,6.84-109.28-3.29-14.87-4.24-31.28-11.72-38-26.64l-.29,8.34c70.33-29.53,151.73-29.08,225.42-13.91a504.52,504.52,0,0,1,68.14,19.17c.41.15,1.87-8.18-.22-8.93Z"/><path class="cls-3" d="M1890.39,2660.68c-87.6-6.17-179.53-31.28-262.19-71.6,75.61,1.25,155.18,14.67,232.16,39.15-60.08,12.41-133.86,3.87-200.1-23.16"/><path class="cls-3" d="M1890.28,2656.22c-70.49-5.07-140.11-21.52-206-47q-28.62-11.1-56.24-24.55l.22,8.93c78.78,1.4,157.11,15.37,232.16,39.15l-.22-8.94c-66.58,13.54-137.69,2.14-200.1-23.16-.31-.12-1.91,8.07.22,8.94,62.41,25.3,133.52,36.69,200.1,23.16,1.53-.31,1.27-8.47-.22-8.94-75-23.77-153.38-37.74-232.16-39.14-1.4,0-1.2,8.24.22,8.93a735.28,735.28,0,0,0,203.4,64.74q29.22,4.73,58.79,6.86c1.17.09,1.45-8.81-.22-8.93Z"/><path class="cls-3" d="M2006.56,2645.72c-76.39-31.4-140-88.77-164.59-148.35,75.4,19.18,147.32,63.5,190,117.1-45.47-4.12-93.63-23.43-129-51.74,29.33,27.53,66.81,50.88,107.32,66.86-68.12-9.82-135.46-62.63-144.52-113.34a1913,1913,0,0,1,227.05,143.51"/><path class="cls-3" d="M2006.45,2641.25c-55.18-22.83-107.07-59.41-142-108.41a201.67,201.67,0,0,1-22.09-39.34l-.29,8.33c57.85,14.86,113.19,43.19,157.71,83.18a285.87,285.87,0,0,1,32.06,33.77l0-8.78a246.68,246.68,0,0,1-128.72-51.58c-.56-.45-1.85,7.18-.31,8.63,31.1,29,68.13,51.33,107.59,67l-.22-8.93c-33.69-5-66-19.45-92.91-40.23-22.63-17.46-45.27-41.87-50.71-70.92l-.68,6.74a1938.23,1938.23,0,0,1,179.52,109.67q23.89,16.47,47.27,33.69c.59.44,2.05-7.35.3-8.63a1903.09,1903.09,0,0,0-174.57-114.19q-26.14-15.14-52.74-29.47c-.8-.43-.76,6.28-.68,6.74,4.19,22.34,17,41.79,32.64,57.86,18.9,19.35,42.28,34.49,67.2,44.87a191.78,191.78,0,0,0,45.58,12.8c1,.16,1.45-8.27-.22-8.93-39.29-15.61-76.1-37.81-107.06-66.7l-.31,8.63a247.75,247.75,0,0,0,129.25,51.89c1.54.14.75-7.9.05-8.79-36.39-45.39-87.11-79-140.65-100.84a385.12,385.12,0,0,0-49.64-16.41c-1.34-.34-.6,7.59-.29,8.34,22.23,53.38,67.91,95.43,116.72,124.66a368.85,368.85,0,0,0,48.38,24.29c.29.12,1.92-8.05-.22-8.94Z"/><path class="cls-3" d="M1757.66,2557l-136.92-53"/><path class="cls-3" d="M1757.55,2552.49l-136.92-53c-.35-.13-1.9,8.12.22,8.94l136.92,53c.35.13,1.9-8.12-.22-8.94Z"/><path class="cls-3" d="M1777.07,2558.4l-83.55-14.32c-25.24-4.33-50.87-8.76-75.4-18-57.77-21.77-99-65.69-136-106.72q67.8,25.47,135.47,51.25c52.73,20.08,107.63,41.59,148.14,75.87-8.74,3.09-21.16-1.21-31.8-5.39l-130.72-51.32c6-3.09,15-3.18,23.2-.24"/><path class="cls-3" d="M1777,2553.93l-72.87-12.49c-23.39-4-47-7.66-69.78-14.39-40.8-12.05-75.92-35.83-106.7-64.73-15.93-15-30.73-31.06-45.37-47.28l0,8.78q61.29,23,122.49,46.3c36.42,13.86,73.18,27.42,107.71,45.64,18.81,9.93,36.84,21.33,53.14,35l0-8.78c-12.32,3.78-26.07-3.14-37.32-7.56l-41.43-16.26-83.77-32.89.22,8.93c7.37-3.45,15.65-2.74,23.2-.24.48.16,1.85-8.24-.22-8.93-7.55-2.5-15.83-3.22-23.2.24-1.53.72-1.35,8.32.22,8.93l83.77,32.89,41.43,16.27c11.25,4.42,25,11.33,37.32,7.56,1.6-.5,1.13-7.87,0-8.79-28.62-24-62.41-41-96.63-55.49-38.38-16.29-77.71-30.43-116.69-45.18q-35.27-13.33-70.55-26.59c-.91-.35-.94,7.78,0,8.78,26.77,29.67,54.41,59.12,87.76,81.54a234.51,234.51,0,0,0,54.84,27.59c22.41,7.68,45.8,11.75,69.09,15.74l83.55,14.33c.9.15,1.64-8.62-.22-8.94Z"/><path class="cls-3" d="M2239.37,2736.16c-15.72-2.36-29.63-14.3-35.77-26s-6.43-23.46-7.88-35.08c-3.65-29.13-15.19-59.3-33.76-88.18,24.44,14,37.95,35.73,56.58,54.06,17.86,17.58,41.26,32.72,55.35,51.63s13.76,44.33-9.78,48.2c-22.87,3.77-53.76-21.35-46.08-37.46,6.93,1.57,13.92,1.26,19.26-.87l-7.64-8.6"/><path class="cls-3" d="M2239.26,2731.69a50.92,50.92,0,0,1-33.44-22.34c-8.77-13.54-7.94-30.17-10.68-45.49-5.2-29.11-17.18-56.44-33-81.29l-.31,8.63c17.77,10.39,30.85,25.81,44.34,41,14.11,15.9,30.48,28.79,46.41,42.74,7.63,6.69,15.12,13.76,21.18,21.94,4.56,6.18,9.77,15.33,8.44,23.34-2.94,17.67-24.62,18.58-37.9,13.42a51.14,51.14,0,0,1-22-16c-1.23-1.6-6-7.86-4-9.63.83-.76,7.56.82,9.21.79a30.63,30.63,0,0,0,9.93-1.85c1.73-.62,1-7.68,0-8.78l-7.65-8.6c-.82-.93-1.11,2.92-1.12,3.15-.08,1.43-.25,4.28.82,5.48l7.64,8.6,0-8.78c-6.31,2.25-12.75,2.18-19.26.86a.76.76,0,0,0-.48.62c-6.75,15.59,5.62,31,18.21,38.71,13.37,8.15,36.53,12.77,45.53-4.15,7.84-14.76,1.41-34.68-8.07-47-15.16-19.69-36.84-33.11-54.41-50.4-18.74-18.43-33.45-40.55-56.58-54.07-1.27-.74-1.07,7.43-.31,8.63,17.29,27.12,29.92,57.3,33.5,89.44,1.52,13.64,3.15,27.61,11.41,39.08,7.75,10.75,19.65,18.67,32.76,20.9.91.16,1.64-8.61-.22-8.93Z"/><path class="cls-3" d="M2245.49,2839.26c-27.43-19.88-68.89-26.36-93.72-14.64-20.73,9.79-32.29,30.75-59.85,29.91,56.9,1,111.51-5,161.13-17.67"/><path class="cls-3" d="M2245.64,2835c-23.12-16.48-55.43-25.38-83.48-18.46-12.39,3.05-22.14,10.54-32,18.2-11.56,9-23.26,15.6-38.31,15.37-1.32,0-1.33,8.91.22,8.93,54.19.9,108.54-4.3,161.13-17.66,1.86-.47.63-9.15-.22-8.94-52.59,13.36-106.94,18.56-161.13,17.67l.22,8.93c13.74.22,25-5.29,35.8-13.38,10.49-7.88,20.35-16.4,33.31-19.87,28-7.51,61,1.32,84.2,17.84.62.44,2-7.39.3-8.63Z"/><path class="cls-3" d="M2487.74,2838.33c-26.35-3-53.62-21.52-61-41.4s3.5-36.72,8.9-54.27,2-41.85-21.76-54.86c30.46,21,37.72,52.19,58.72,78.18,10.69,13.24,25.13,25.28,34.29,38.89s11.6,30.38-1.38,37.52c-23.14-8.54-43.05-25.22-51.29-43"/><path class="cls-3" d="M2487.64,2833.87a86.07,86.07,0,0,1-39.91-16c-10.82-7.94-22.84-20.47-22.48-34.91.36-14.29,9.06-27.11,12.13-40.84a63.37,63.37,0,0,0-.56-30c-3.45-12.65-11.73-22.35-23.06-28.76-.12-.07-1.72,7.6,0,8.78,13.07,9.17,23,21.23,31.39,34.73,7.95,12.84,14.69,26.45,23.65,38.67,10.47,14.28,24.38,25.55,35.07,39.63,4.47,5.89,11.39,15.62,9.23,23.48a15.21,15.21,0,0,1-5.67,8c-2.31,1.73-3.36.81-5.91-.25-2.32-1-4.61-2-6.85-3.13-16.36-8.17-32-21-40-37.7-.8-1.68-1.21,1.07-1.29,1.63a12,12,0,0,0,.5,6.11c7.63,15.89,21.41,28.06,36.61,36.56,4.09,2.28,9,5.4,13.61,6.41,1.89.41,2.49.18,4.08-1a16.72,16.72,0,0,0,4.14-4.49c3.52-5.67,3.68-13.12,2.84-19.55-2.44-18.74-17.11-32.38-29.53-45.33a181.66,181.66,0,0,1-19.09-22.64c-5-7.25-9.32-14.89-13.69-22.52-10.35-18-21.47-35.09-38.76-47.23l-.05,8.78c11.12,6.3,19.92,16.46,22.33,29.26,2.35,12.55-3.87,24.31-8,35.8-4.42,12.36-6.75,25.51-3.54,38.47,3,12,11.16,21.8,20.78,29.27a87.22,87.22,0,0,0,42.28,17.73c1,.13,1.56-8.71-.21-8.93Z"/><path class="cls-3" d="M2493.63,2946.22a31.9,31.9,0,0,0-13.23-7.77,35.06,35.06,0,0,0-16.48-.8l.27-10.6c-20.26-12.73-46-5.61-58.83,6.1a171.86,171.86,0,0,0-12.26,13.07Z"/><path class="cls-3" d="M2493.63,2941.72a34.27,34.27,0,0,0-29.71-8.57l.48,5.7.27-10.61c0-.74.47-5.12-.48-5.69-11.88-7.16-26-8.44-39.24-4.54-13.8,4.07-22.55,13.22-31.85,23.71-.72.81-.76,9,0,9h100.53c.73,0,.75-9,0-9H2393.1v9c9.27-10.47,18.05-19.68,31.85-23.71,13.25-3.87,27.34-2.63,39.24,4.54l-.48-5.7-.26,10.6c0,.14,0,5.79.47,5.7a34.27,34.27,0,0,1,29.71,8.57s.5-4.09.5-4.5C2494.13,2945.18,2494.49,2942.51,2493.63,2941.72Z"/><path class="cls-3" d="M2491.49,2967.29a15.47,15.47,0,0,0,5.75-2.76,7.92,7.92,0,0,0,2.08-2.6q-12.43,1-24.87,2.1Q2483,2965.64,2491.49,2967.29Z"/><path class="cls-3" d="M2491.49,2971.79c3.34-1.06,6.16-2.44,8-5.52.46-.78.56-8.9-.13-8.84q-12.43,1-24.87,2.1c-.71.07-.87,8.84,0,9q8.53,1.62,17,3.26c.17,0,1.25-8.76,0-9q-8.5-1.65-17-3.26v9q12.43-1.11,24.87-2.1l-.13-8.84c-1.73,2.95-4.56,4.21-7.7,5.2C2490,2963.26,2491.63,2971.75,2491.49,2971.79Z"/><path class="cls-3" d="M2687.52,2937.59c-14.45-25.16-36.56-49.23-63.81-69.43-2.35,22.71,8.18,48.51,28.5,70.56Q2669.87,2938.11,2687.52,2937.59Z"/><path class="cls-3" d="M2687.65,2933.25c-16-27.52-38.54-50.64-63.94-69.59-.17-.12-.37,1.57-.35,1.32a92.29,92.29,0,0,0,9.6,51,121.88,121.88,0,0,0,17.46,25.27c1.53,1.73,1.33,1.7,3.76,1.93a34.32,34.32,0,0,0,3.92-.14l9.8-.32q9.81-.33,19.62-.61c.8,0,.66-9,0-9q-14.71.43-29.42.93l-3.92.14a2.23,2.23,0,0,1-3.17-1.26c-1.64-1.21-3.27-3.76-4.46-5.24a124.33,124.33,0,0,1-7.56-10.41c-8.42-13-16.39-30-14.93-45.91l-.35,1.32c25.3,18.87,47.77,41.86,63.67,69.27.33.56.6-2.9.61-3.14C2688.05,2937.33,2688.43,2934.6,2687.65,2933.25Z"/><path class="cls-3" d="M2753.43,2893.14q11.58,11.64,23.6,23.09A91,91,0,0,0,2753.43,2893.14Z"/><path class="cls-3" d="M2753.43,2897.64q11.66,11.7,23.6,23.09s.48-3.74.49-3.9c0-1.23.39-3.87-.36-4.94a95,95,0,0,0-23.73-23.25,40.27,40.27,0,0,0-.5,4.5c0,.88-.36,3.9.5,4.5a93.84,93.84,0,0,1,23.47,22.93l.13-8.84q-11.94-11.4-23.6-23.09s-.5,4.06-.5,4.5C2752.93,2894.22,2752.58,2896.78,2753.43,2897.64Z"/><path class="cls-3" d="M2840.2,3013.76c1.67,1.06,3.8,2.95,5.7,3.5,1.75.5,4.26.15,6.09.22.66,0,.76-8.24,0-9a77.34,77.34,0,0,1-8.95-10.75l.12,8.22.28-1.17c.18-.77.29-8.52-.25-8.39q-11.19,2.58-22.46,4.71c-.87.17-.83,8.39,0,9,5.18,3.82,13.3,7,19.47,3.66,1.75-1-.61-8.66,0-9-6.17,3.38-14.29.16-19.47-3.66v9q11.28-2.11,22.46-4.71l-.25-8.39c-.63,2.63-1.12,6.34-.28,8.95,1.28,4,6.4,8.63,9.33,11.53v-9c-1.83-.07-4.34.28-6.09-.22-1.9-.55-4-2.44-5.7-3.5C2841,3005.25,2838.39,3012.61,2840.2,3013.76Z"/><path class="cls-3" d="M2809.7,2992.51q18.78-3.06,37.39-7.58l1.25-5.2q-11.22-9.24-22.15-18.67h-35.62a25.33,25.33,0,0,0,1.8,3.52Q2801,2978.55,2809.7,2992.51Z"/><path class="cls-3" d="M2809.7,2997q18.84-3.11,37.39-7.58a.76.76,0,0,0,.25-.61l1.25-5.2c.36-1.48,1.07-7.3-.25-8.39q-6.33-5.24-12.62-10.54c-2.2-1.86-4.41-3.74-6.6-5.62-.88-.75-2-2.14-3.07-2.51-2.74-1-7.56,0-10.44,0h-25c-.87,0-.5,8-.14,8.84,5,11,12.79,21.22,19.14,31.45.35.56.6-2.9.61-3.14.06-1.41.46-4.25-.34-5.54-6.36-10.23-14.19-20.47-19.14-31.45l-.13,8.84h25c2.95,0,7.53-.92,10.35,0,3.07,1,6.48,5.35,9,7.51q6.63,5.63,13.35,11.16l-.25-8.38c-.25,1.05-.34,3.75-1.09,4.54-1.33,1.42-8.8,2.13-11.09,2.63q-13,2.85-26.21,5C2808.54,2988.2,2809.43,2997.06,2809.7,2997Z"/><path class="cls-3" d="M2786.06,2935.06l10.88-.27q-10.08-9.21-19.91-18.56a66.43,66.43,0,0,1,4.38,7.32A80.15,80.15,0,0,1,2786.06,2935.06Z"/><path class="cls-3" d="M2786.06,2939.56l10.88-.27c.74,0,.78-8.28,0-9q-10.05-9.18-19.91-18.56s-.48,3.74-.49,3.9c0,1.26-.38,3.84.36,4.94a76.58,76.58,0,0,1,9,18.82c.16.51.59-2.85.6-3.14a16.57,16.57,0,0,0-.34-5.53,76.48,76.48,0,0,0-9-18.83l-.13,8.84q9.85,9.39,19.91,18.56v-9l-10.88.27C2785.26,2930.57,2785.38,2939.57,2786.06,2939.56Z"/><path class="cls-3" d="M2838.9,2986.85q-9.63-13-20.15-25.79h-.37l19.4,26Z"/><path class="cls-3" d="M2839,2982.51q-5.72-7.7-11.64-15.23c-1.79-2.28-3.61-4.54-5.43-6.8-.48-.59-2.63-3.92-3.58-3.92-.72,0-.7,8.08-.13,8.84l19.4,26,.13.16,1.12-.25c1.28-.28.12-9,0-9-1.88.42-2.73-1.93-3.91-3.51l-6.78-9.1-9.7-13-.13,8.84c1.3,0,3.47,3.79,4.53,5.11,1.82,2.26,3.62,4.52,5.41,6.81q5.32,6.78,10.45,13.71c.4.55.59-2.88.6-3.14C2839.43,2986.77,2839.87,2983.65,2839,2982.51Z"/><path class="cls-3" d="M2857.5,3013.21q-4.45-6.8-9.16-13.54l-.81.21,9.94,13.33Z"/><path class="cls-3" d="M2857.63,3008.87q-4.49-6.82-9.16-13.53l-.13-.17-.81.21c-1,.24-.71,8-.13,8.83l5.29,7.1,3.38,4.54c.17.23,1.08,1.85,1.43,1.86.63,0,.85-9,0-9-.05,0-1.16-1.52-1.51-2l-3.36-4.51-5-6.66-.14,8.84c1.68-.42,4.53,5.22,5.32,6.39q2.28,3.38,4.52,6.78c.37.56.6-2.89.61-3.14C2858,3013,2858.45,3010.12,2857.63,3008.87Z"/><path class="cls-3" d="M1620.73,2503.71l38.93,7c-16.76,5.48-39,4.25-59.16-3.27a475.32,475.32,0,0,0,75.72,24.73Q1612.77,2498.79,1552,2462a726.83,726.83,0,0,1,158.41,68.71"/><path class="cls-3" d="M1620.84,2508.18l38.93,7-.22-8.94c-19.28,6-40.42,3.53-59.16-3.26-.43-.16-1.8,8.08.22,8.93a484,484,0,0,0,75.72,24.72c.9.22,1.39-8.08-.22-8.93q-63-33.16-124-70l-.05,8.78A729.76,729.76,0,0,1,1710.24,2535c.84.49,2-7.61.31-8.62a731.55,731.55,0,0,0-158.68-68.87c-.75-.23-1.43,7.94,0,8.78q61.18,37,124.5,70.29l-.22-8.93a485.08,485.08,0,0,1-75.72-24.72l.22,8.93c18.74,6.8,39.88,9.3,59.16,3.27,1.5-.47,1.3-8.67-.22-8.94l-38.93-7c-.88-.16-1.65,8.6.22,8.94Z"/><path class="cls-3" d="M1565.81,2483.47l168.33,52.29"/><path class="cls-3" d="M1565.92,2487.94l168.33,52.29c.54.16,1.84-8.3-.22-8.94L1565.7,2479c-.54-.16-1.83,8.3.22,8.94Z"/></g><path class="cls-3" d="M122.76,262.3c9.41,11.89,23.36,18.78,38.38,19.95,7.7.6,7.66-11.4,0-12-12-.94-22.49-7.08-29.9-16.43-4.79-6.06-13.23,2.48-8.48,8.48Z"/><path class="cls-3" d="M227.86,330.36h13.36c7.72,0,7.73-12,0-12H227.86c-7.72,0-7.73,12,0,12Z"/><path class="cls-3" d="M298.48,356l20.11,13.25c6.47,4.26,12.48-6.12,6.06-10.36l-20.11-13.26c-6.47-4.26-12.49,6.13-6.06,10.37Z"/><path class="cls-3" d="M406.94,396,427,402.5c7.37,2.38,10.52-9.2,3.19-11.58l-20.09-6.51c-7.36-2.38-10.52,9.2-3.19,11.57Z"/><path class="cls-3" d="M511.72,457.25,558.18,478c7,3.12,13.1-7.22,6.05-10.36l-46.45-20.73c-7-3.12-13.1,7.22-6.06,10.36Z"/><path class="cls-3" d="M622,477.31A62.58,62.58,0,0,1,669.89,508c3.9,6.66,14.28.63,10.36-6.05A75.12,75.12,0,0,0,622,465.31c-7.69-.69-7.65,11.32,0,12Z"/><path class="cls-3" d="M754,564l26.72,6.68c7.5,1.87,10.69-9.7,3.19-11.57l-26.72-6.68c-7.49-1.88-10.69,9.69-3.19,11.57Z"/><path class="cls-3" d="M847.43,651.06a95,95,0,0,1,44.14,31.63c4.77,6.07,13.2-2.47,8.49-8.48a106.15,106.15,0,0,0-49.44-34.73c-7.33-2.49-10.47,9.09-3.19,11.58Z"/><path class="cls-3" d="M937.53,774.92l20,46.76c3,7.08,13.37,1,10.36-6l-20-46.77c-3-7.07-13.37-1-10.36,6.06Z"/><path class="cls-3" d="M970,938.93v53.44c0,7.72,12,7.73,12,0V938.93c0-7.72-12-7.74-12,0Z"/><path class="cls-3" d="M951.08,1098l-19.4,47c-2.94,7.13,8.66,10.24,11.57,3.19l19.4-47c2.94-7.14-8.67-10.25-11.57-3.19Z"/><path class="cls-3" d="M883.06,1259.59c.52,8.56-3.06,16.66-10.3,21.46-6.41,4.25-.4,14.64,6.06,10.36a35.59,35.59,0,0,0,16.24-31.82c-.47-7.67-12.48-7.73-12,0Z"/><path class="cls-3" d="M811.18,1383.86l-32.47,54c-4,6.64,6.39,12.68,10.37,6.06l32.46-54c4-6.64-6.38-12.68-10.36-6.06Z"/><path class="cls-3" d="M705.61,1548.06l-46.26,34.08c-6.15,4.54-.17,15,6.06,10.37l46.26-34.09c6.15-4.53.17-15-6.06-10.36Z"/><path class="cls-3" d="M591.72,1676.9,524.2,1743c-5.52,5.41,3,13.9,8.49,8.49l67.52-66.07c5.53-5.41-3-13.89-8.49-8.48Z"/><path class="cls-3" d="M463.2,1815.43l-46.46,40.42c-5.84,5.08,2.68,13.54,8.48,8.49l46.46-40.43c5.84-5.08-2.68-13.53-8.48-8.48Z"/><path class="cls-3" d="M322.81,1998l-26.7,40.09c-4.3,6.44,6.09,12.46,10.36,6.05l26.7-40.09c4.3-6.44-6.09-12.46-10.36-6Z"/><path class="cls-3" d="M241.9,2148v46.76c0,7.72,12,7.74,12,0V2148c0-7.72-12-7.73-12,0Z"/><path class="cls-3" d="M242.2,2303.24l12.53,40.34c2.28,7.35,13.87,4.22,11.57-3.19l-12.53-40.34c-2.28-7.35-13.87-4.21-11.57,3.19Z"/><path class="cls-3" d="M296.86,2404.05c-9.61,9.29-9.48,26,.76,34.81,5.83,5,14.35-3.44,8.49-8.49a12,12,0,0,1-.77-17.84c5.57-5.38-2.93-13.86-8.48-8.48Z"/></svg>