<svg id="Capa_1" data-name="Capa 1" xmlns="httpswww.w3.org/2000/svg" viewBox="0 0 3000 3000"><defs><style>.cls-1{fill:#731c46;opacity:0.49;}.cls-2{opacity:0.54;}.cls-3{fill:#edc34d;}</style></defs><path class="cls-1" d="M2998.54,2063.66A7.78,7.78,0,0,1,3000,2059V.58H-1.94A8.06,8.06,0,0,1-5,0V20.55a6,6,0,0,1,3,5.57V3002.46a10,10,0,0,1,1.17.3h0a7.33,7.33,0,0,1,2,1.05h0a6.14,6.14,0,0,1,.82.71H4.91a6.15,6.15,0,0,1,5.06-2.22h36.7c30.16-2.75,60.82-1.93,91,0H2998.54Z"/><g class="cls-2"><path class="cls-3" d="M364.56,2989.35c15.83-60.27,46.1-114.83,80.85-166.1,36-53.18,77.66-102.87,110-158.47a504.73,504.73,0,0,0,40.29-86.34c11.32-32.23,18.34-65.75,23.88-99.4,10.67-64.8,15.59-130.4,26.19-195.18,9.87-60.3,27.63-119.82,65.41-168.86,4.52-5.86,10.49-10.05,15.08-15.79.89-1.12.4-4.4.36-5.74,0-.5-.29-3.7-.64-3.26-4.59,5.75-10.54,9.91-15.07,15.79q-7.29,9.48-13.76,19.55a293.07,293.07,0,0,0-21.45,40.12c-12,27.23-20.06,56-25.92,85.16-5.94,29.56-9.7,59.5-13.28,89.42-4,33.13-8.05,66.26-12.68,99.32-5,35.78-10.73,72-20.93,106.69A480.35,480.35,0,0,1,567,2634.41c-30.27,57.54-71.63,108-108.86,161.05-35.31,50.31-68,103.2-87.1,162-2.47,7.57-4.69,15.21-6.71,22.91a20.05,20.05,0,0,0-.36,5.74,17.54,17.54,0,0,0,.63,3.26Z"/><path class="cls-3" d="M716,2090.16c-72.64,63.33-125.39,147.31-162.37,235.65-21,50.05-36.74,102.07-48.44,155-12.52,56.7-20.94,114.19-30.05,171.5-10.18,64.08-21,128.33-39.74,190.56a13.9,13.9,0,0,0-.21,6.35c.1.53.86,3.52,1.42,1.63,33.2-110.4,42.36-226,64.95-338.69,20.9-104.2,56.56-205.93,114.68-295.45,28.17-43.39,61.47-83.62,100.52-117.66,1.68-1.48-.22-9.4-.76-8.92Z"/><path class="cls-3" d="M436.73,2842.61c22.43-41.85,52.94-78.75,87.76-110.87,37.21-34.33,78.66-63.55,117.6-95.81,36.19-30,70-63.17,97.8-101.18,29.64-40.48,53.67-84.77,75.33-129.94,25.42-53,47.41-107.62,69.37-162.16l-.39-8.53c-13.1,64.27-18.22,129.51-23.52,194.77-2.76,34.05-5.79,68.11-10.65,101.94-2.37,16.51-5.18,33-8.54,49.3-1.48,7.2-2.12,16.56-5.89,22.92-3.21,5.41-3.85,12.63-5.46,18.68-7.36,27.52-16.83,54.53-29.34,80.14-12.75,26.1-28.81,49.56-47.28,71.9-1.52,1.84-1.85,4-3.06,6-2,3.22-5.86,6-8.55,8.69q-8,7.92-16.21,15.65a443.1,443.1,0,0,1-33.84,29A274.69,274.69,0,0,1,655.22,2857c-3.34,1.8-5.36,4.53-8.43,6.6-3.37,2.27-7.31,4-10.89,5.91q-10.75,5.8-21.59,11.47c-14.08,7.36-28.28,14.49-42.66,21.25-7.43,3.49-14.88,7-22.46,10.18-2.79,1.17-5.65.77-8.4,1.89-3.4,1.38-6.67,3.58-9.92,5.31-25.78,13.69-52,27.05-74.7,45.68a197,197,0,0,0-16.59,15.31c-.84.86-.52,3.56-.52,4.67,0,.52.65,4.53.52,4.67,20.78-21.45,46.22-36.88,72.35-50.93,6.55-3.53,13.14-7,19.71-10.48,3.15-1.67,6.47-4,9.84-5.16,2.9-1,5.65-.75,8.59-2,15-6.44,29.72-13.53,44.3-20.83s28.91-14.87,43.2-22.59c3.46-1.87,7.61-3.54,10.62-6,1.23-1,2.16-2.38,3.39-3.38a32.36,32.36,0,0,1,5.17-3c6.54-3.59,12.92-7.49,19.13-11.63,24.83-16.58,46.74-37,67.89-58,2.15-2.13,5-4.25,6.65-6.76a20.91,20.91,0,0,0,1.38-3.14,20.41,20.41,0,0,1,3.37-4.82c4.36-5.15,8.6-10.38,12.66-15.77a327.77,327.77,0,0,0,23.35-35.74c14.06-24.88,24.93-51.47,33.4-78.74q3.24-10.44,6-21c1.61-6.06,2.32-13,5.56-18.35,3.41-5.65,3.86-14.05,5.21-20.47q2.64-12.54,4.85-25.18c5.74-32.73,9.47-65.77,12.47-98.86,6.06-66.84,9.64-133.91,21.29-200.12q2.18-12.41,4.71-24.76a23.62,23.62,0,0,0,.21-5.82c0-.43-.43-3.14-.61-2.71-38.2,94.86-76,192.19-134.06,277.06-27.39,40.06-60.61,75.23-97.38,106.79-38.18,32.77-79.52,61.68-117.31,94.93-39.43,34.68-74.22,74.73-99.11,121.18-.79,1.46-.42,4.13-.36,5.74,0,.52.42,3.66.63,3.26Z"/><path class="cls-3" d="M374.77,2989.42c13-25.69,30-49,48-71.37,17.69-22,37.88-42.24,61-58.6s49.72-27.14,74.31-41.21c25.16-14.39,48-32.44,69.59-51.69,25.49-22.73,49.41-47.16,75.41-69.33.85-.72.52-3.67.52-4.67,0-.45-.57-4.63-.52-4.67-45.66,38.94-85.6,84.82-137.2,116.41-24.69,15.11-51.83,25.84-76.08,41.72-23.3,15.25-43.79,34.86-61.65,56.14-20.28,24.18-39.38,50-53.63,78.27-.76,1.52-.42,4.1-.36,5.74,0,.53.44,3.65.63,3.26Z"/><path class="cls-3" d="M459.54,2770.09c32.71-36.51,55.33-81.37,70.2-127.83,17.63-55.14,20.43-113.28,35.82-169,8.72-31.54,19.81-62.35,30.94-93.11a12.76,12.76,0,0,0,.2-6.35c-.11-.6-.76-3.46-1.42-1.63-9.85,27.23-19.68,54.5-27.85,82.29a654.83,654.83,0,0,0-18.56,84.67c-4.38,28.2-8.9,56.23-16.87,83.68a405.18,405.18,0,0,1-29,73.34,312.15,312.15,0,0,1-44.25,65c-1.08,1.21-.71,4.25-.57,5.72,0,.4.53,4.09,1.32,3.2Z"/><path class="cls-3" d="M218.11,2981.13c-12.67-58.49-25.55-119.24-18.08-179.33,3.49-28.07,12.72-54.7,21.46-81.45,8.52-26,15.56-52.26,17.47-79.69,2.34-33.42-1-66.9-4.45-100.13-.07-.66-.19-3.72-1.33-3.2s-.64,5-.56,5.72c3.25,31.45,6.69,63.23,4.35,94.87-2.15,28.87-10.67,56.24-19.69,83.56-8.79,26.59-16.84,53.21-19.74,81.17-3,28.5-1.77,57.32,1.51,85.74,3.86,33.44,10.67,66.45,17.79,99.33.4,1.85.93,1.2,1.43,0,.71-1.78.23-4.73-.16-6.55Z"/><path class="cls-3" d="M200.09,2936.08c6.71-50.53-24-92.94-55.06-129.21-33-38.52-67.93-75.21-88.77-122.18C44.43,2658,37,2629.37,36.63,2600.11c0-.52-.15-4.8-1.13-4.61s-.9,4.06-.89,4.65c.55,47.36,16.94,93,42.53,132.49,27.55,42.53,66.16,76.24,95,117.75,16.18,23.31,30,52,26.11,81.05-.26,2,1.11,10.36,1.86,4.64Z"/><path class="cls-3" d="M187.78,2861.29c-65.17-71.12-84.27-171.34-79.49-265,5.69-111.59,40.21-219.12,52.06-329.93,6.38-59.7,6.32-120.54-7.36-179.27l-1,7a1154.51,1154.51,0,0,1,56.84,188.93,1144.57,1144.57,0,0,1,23.74,197.12q1.83,55.91-1.84,111.78c-.21,3.19,1.54,8.54,1.94,2.33a1173.13,1173.13,0,0,0-4.33-202.19A1175.49,1175.49,0,0,0,189.52,2194q-15.74-54.68-36.75-107.61c-.64-1.61-1.09.7-1.23,1.18a13.09,13.09,0,0,0,.22,5.87c26,111.67-.47,226.15-22.11,336.16-19.71,100.18-36.18,204.15-11.47,305,12.2,49.77,34.48,97.28,69.3,135.27.84.92,1.11-2.9,1.12-3.14.07-1.41.25-4.31-.82-5.48Z"/><path class="cls-3" d="M5.7,2216c8,13.58,14.49,28,23,41.27s18.21,25.49,28.11,37.62c18.27,22.39,37.27,44.86,49,71.53,8,18.24,12.87,38.16,8.51,58a21.2,21.2,0,0,0-.18,6.16c0,.46.31,3.29.68,1.62,6.92-31.45-1.4-63.66-17.25-91.06-17-29.39-41.19-53.59-60.88-81.07C24.75,2243.4,16.3,2225,6,2207.35c-.33-.56-.6,2.9-.61,3.15-.06,1.44-.44,4.19.34,5.53Z"/><path class="cls-3" d="M28,2616.48c7.11-91.14,3.33-183-9.37-273.49q-5.43-38.67-12.92-77c-.34-1.76-.66,1.38-.68,1.62a23.12,23.12,0,0,0,.18,6.16c16.81,86.39,26.19,174.34,25.3,262.41q-.37,37.93-3.37,75.78c-.1,1.33-.71,5.1.18,6.16s.59-.44.68-1.62Z"/><path class="cls-3" d="M235.13,2394.48c.55-66.28,53.64-117.6,96.5-162C381.12,2181.31,425,2125.64,461,2064.09A848.14,848.14,0,0,0,514.3,1956a12,12,0,0,0,.27-5.59c0-.27-.74-3.47-1.22-2.56-32.31,61.31-36.72,131.78-43.6,199.42-6.95,68.36-15.51,136.64-29,204-13.38,66.77-31.71,132.76-58.33,195.53a704.52,704.52,0,0,1-46.48,91.1c-18.5,30.44-40,58.77-60.77,87.68-39.78,55.49-77,118.15-73.51,189a176.9,176.9,0,0,0,3,24.72c1.06,5.5,1.93-2.68,1.57-4.55-13.83-71.44,26.3-139.46,66-195.37,20.17-28.41,41.47-56,60-85.58a699.43,699.43,0,0,0,45.64-86.05c26.91-60.28,45.85-123.85,59.88-188.27,14.14-65,23.34-130.92,30.61-197,7.42-67.46,9.07-138.2,34.63-202a257.83,257.83,0,0,1,11.15-24.11l-1-8.14a843.85,843.85,0,0,1-109,191.2c-21.94,28.93-45.89,56.08-71.09,82.18-22.93,23.76-46.36,47.39-65.47,74.43-20.1,28.46-34.11,60.75-34.4,96,0,1.06-.32,4.86.82,5.47s1.12-2.72,1.12-3.14Z"/><path class="cls-3" d="M196.66,2879.57c-7.18-38,1.25-76.28,12.09-112.7,10.68-35.89,22.86-71.38,34.42-107q35.4-109.08,70.79-218.16,19.86-61.18,39.7-122.36a12.8,12.8,0,0,0,.2-6.12c-.1-.53-.78-3.37-1.37-1.57l-73.56,226.69L242.3,2651.23c-12.05,37.15-24.88,74.15-35.82,111.65-11.44,39.26-19.1,80.49-11.39,121.24,1,5.5,1.93-2.69,1.57-4.55Z"/><path class="cls-3" d="M194.14,2867.77c-14.79-48-19.79-98.17-21.36-148.2-1.6-50.64-.86-101.39-.92-152.06q0-43.56-.1-87.12c0-.61,0-4.47-1.08-4.44s-.87,4.09-.87,4.49q.09,80.19.19,160.38c.06,49.95-.08,100,5.8,149.72,3.35,28.29,8.73,56.34,17.12,83.58.54,1.78.78,1.16,1.37,0,.72-1.44.31-4.82-.15-6.32Z"/><path class="cls-3" d="M143.17,2800.24c-24.71-35-36.32-76.8-43.2-118.64-7.57-46-11.6-92.73-16.89-139.07l-9.54-83.47c-.7-6.14-2.19-.8-1.82,2.42l17.61,154.19c5,43.37,9.35,87.27,22.55,129.09,7.18,22.76,17.2,44.57,31,64.11.71,1,1.12-3,1.13-3.15.08-1.6.17-4.08-.82-5.48Z"/></g><g class="cls-2"><path class="cls-3" d="M482.46,1647.56c-9.72-75.34,8-151.07,39.75-219.31C551.13,1366,593,1312,631.82,1255.85c19.52-28.25,38.07-57.23,53.64-87.86a479.54,479.54,0,0,0,37.75-100.82c19.09-76.31,22.4-155.4,33.08-233.07,5.05-36.74,11.91-73.44,22.91-108.9,9.64-31.1,22.53-62,42.55-88a163.3,163.3,0,0,1,14.48-16.39c1.65-1.64-.36-9.32-.76-8.92C813,634.2,797.89,662.8,786.65,692.1c-12.94,33.74-21.12,69.24-27.22,104.79-13.57,79.08-16,159.73-32.08,238.42-7.81,38.14-19.52,75.15-36.12,110.41-15.12,32.11-33.77,62.4-53.68,91.74-38.84,57.22-82,111.45-112.34,173.94-32.07,66-51,138.78-47,212.48.51,9.5,1.41,19,2.63,28.39.18,1.37.35,2.6,1.43,1.63s.35-5.19.2-6.34Z"/><path class="cls-3" d="M825.71,612c-71.5,64.6-122.78,149.5-158.19,238.47-20.08,50.45-35,102.8-45.74,156C610.4,1062.76,603,1119.74,595,1176.56c-9.1,64.84-18.84,129.9-36.61,193a14.18,14.18,0,0,0-.21,6.35c.1.51.89,3.53,1.43,1.63C590.86,1266.68,598,1151,618.57,1038,637.63,933.39,671.47,831,728.05,740.35c27.39-43.88,60-84.69,98.42-119.41,1.68-1.52-.25-9.38-.76-8.92Z"/><path class="cls-3" d="M559.87,1369.24c21.94-42.76,51.94-80.23,86.67-113.28,32.67-31.08,68.67-58.32,103.29-87.13,35.92-29.9,69.9-61.92,98-99.39,31.14-41.48,56-87.39,77.94-134.26,26.65-56.84,49.1-115.55,71.52-174.16l-1.41-7.25c-15.68,84.41-18.08,170.49-26.26,255.77-7.87,82.09-20.68,166.71-62.56,239.17-36.64,63.4-92.53,111.3-155.55,147.32-65.71,37.56-140.6,61.29-193.11,118.44C506.57,1570.89,484,1653.66,493.14,1729a248.52,248.52,0,0,0,5.53,29.88c.45,1.8.92,1.25,1.43,0,.7-1.73.29-4.78-.16-6.55-10.19-41-8.18-84,3-124.54,9.91-35.83,26.65-70.33,51-98.57,26.39-30.58,59.85-53.19,95.36-71.89,32.09-16.89,65.41-31.3,97.08-49,61.09-34.17,116.33-78.91,154.09-138.58,42.65-67.38,58.7-146.66,67.76-224.81,9.81-84.69,11.52-170.21,24.18-254.58q2.26-15.08,5-30.06a14.16,14.16,0,0,0-.07-6.08c-.17-.61-.7-2.83-1.33-1.17-20,52.35-40.08,104.74-63.1,155.85-21.68,48.12-46,95.41-76.45,138.63-27.34,38.82-60.38,72.36-96.44,103.09-33.91,28.91-69.63,55.66-102.66,85.61-39.5,35.8-73.91,76.49-98.34,124.1-.85,1.66-.73,3.91-.56,5.72,0,.34.84,4.14,1.32,3.2Z"/><path class="cls-3" d="M482.62,1606.7c-7.81-37.12,9.55-74.26,27.45-105.76a416.64,416.64,0,0,1,57.2-78.65c20.66-22.13,44.13-41.81,70.28-57.15,15.2-8.91,31.32-16.09,46.68-24.7s29.35-19.29,42.51-31.17c32.78-29.58,64.69-60.16,97-90.26,1.67-1.55-.29-9.36-.76-8.92-30.26,28.2-60.41,56.51-90.79,84.58-14.71,13.6-29.87,26.18-47.37,36.06-16,9-32.9,16.49-48.73,25.88-56.43,33.49-99.89,85.86-131,143-19,34.93-32.17,73.66-23.75,113.69.39,1.86.93,1.2,1.43,0,.71-1.79.22-4.72-.16-6.55Z"/><path class="cls-3" d="M581.16,1296.38c32-37,53.76-82.06,67.81-128.63,16.65-55.21,18.47-113.14,32.69-168.88,8.18-32.08,18.86-63.44,29.57-94.74a13.12,13.12,0,0,0,.2-6.35c-.11-.57-.79-3.48-1.42-1.63-9.27,27.11-18.51,54.25-26.14,81.87a652.65,652.65,0,0,0-17.21,84.89c-4,28.71-8,57.28-15.59,85.29a406.71,406.71,0,0,1-27.27,72.91,311.89,311.89,0,0,1-43.4,66.35c-1.07,1.24-.7,4.23-.57,5.72,0,.39.56,4.1,1.33,3.2Z"/><path class="cls-3" d="M343.62,1511.64c-13.7-58.22-27.75-118.79-21.34-179,3-28.46,11.93-55.52,20.28-82.74,8.05-26.25,14.49-52.65,15.88-80.17,1.69-33.46-2.34-66.88-6.36-100-.17-1.41-.35-2.54-1.42-1.63s-.35,5.23-.21,6.35c3.77,31.09,7.64,62.47,5.93,93.84-1.62,29.77-10.18,58-19,86.33-8.22,26.46-15.48,53-17.68,80.74-2.25,28.34-.54,56.84,3.24,85,4.42,33,11.75,65.52,19.37,97.9.43,1.83.92,1.23,1.43,0,.7-1.75.26-4.75-.16-6.55Z"/><path class="cls-3" d="M324.71,1466.92c5.82-50.71-25.42-92.43-57.21-128.23-33.68-37.93-69.25-74-90.92-120.59-12.28-26.43-20.33-55-21.19-84.22,0-.51-.14-4.79-1.12-4.6s-.92,4.07-.9,4.65c1.39,47.37,18.47,92.66,44.78,131.74,28.3,42,67.5,75.06,97,116.06,16.53,22.94,31,51.49,27.65,80.56-.15,1.3-.61,5.41.52,6.33s1.18-.25,1.34-1.7Z"/><path class="cls-3" d="M311.2,1392.35c-66.42-70-87.4-170-84.24-263.72,3.76-112,36.56-220.48,46.32-331.87,5.2-59.39,4.08-119.8-10.54-177.87l-1,7.05A1154.16,1154.16,0,0,1,322,814a1145.21,1145.21,0,0,1,27.24,196.87q2.79,55.65.13,111.39c-.15,3.17,1.64,8.54,1.94,2.32a1178.16,1178.16,0,0,0-7.78-201.52A1168.11,1168.11,0,0,0,301.3,725.64Q284.56,671,262.53,618.2c-.66-1.59-1.09.67-1.23,1.18a12.81,12.81,0,0,0,.22,5.87c27.89,110.78,3.83,225.17-15.83,335.14-18,100.92-33,205.69-6.44,306.54,13.07,49.56,36.16,96.66,71.64,134,.86.91,1.11-2.89,1.13-3.15.07-1.38.26-4.34-.82-5.47Z"/><path class="cls-3" d="M147.57,1149.29A1298.26,1298.26,0,0,0,121.5,812.47Q111.45,764.78,97.75,718L97,725.46c12.9,10.93,21.34,25.55,29.37,40.19,8.21,15,16.94,29.37,27.47,42.89C176.13,837.19,203,862.91,218.9,896c9.25,19.17,14.94,40.34,10.62,61.58-.33,1.64-.73,4.83.16,6.32.62,1,1,2,1.38,0,16.69-82.22-63.83-134-99.14-197.27-9.89-17.7-18.87-36.4-34.63-49.76-1.06-.9-1,6.72-.76,7.49a1269.64,1269.64,0,0,1,50.66,328.32q1,47.17-1.55,94.32c-.17,3.18,1.6,8.55,1.93,2.33Z"/><path class="cls-3" d="M350.22,923.6C349.61,857.55,403,805,444.77,760.1c48.42-51.93,91.11-108.37,125.85-170.39a849.18,849.18,0,0,0,51-108.27,12.23,12.23,0,0,0,.26-5.58c0-.27-.75-3.47-1.21-2.56-31.5,62.4-34.5,133.57-40.26,201.9-5.79,68.68-13.21,137.32-25.69,205.15-12.31,66.89-29.59,133.08-55.25,196.16a702.77,702.77,0,0,1-45.3,92.06c-18.12,30.75-39.29,59.45-59.5,88.83-38.5,56-73.52,118.9-68.63,189.18a176,176,0,0,0,3.48,24.38c.4,1.89.85,1,1.38,0,.77-1.56.19-4.68-.16-6.32-15.06-71,24.5-140,63.12-196.35,19.52-28.51,40.13-56.29,58-85.92A699.16,699.16,0,0,0,496,1095.21c25.67-60.41,43.42-123.94,56.27-188.23,13.09-65.4,21.17-131.71,27.29-198.09,6.22-67.53,6.61-138.27,31-202.45a256.2,256.2,0,0,1,10.81-24.54l-1-8.15a843.6,843.6,0,0,1-105.59,193.1c-21.45,29.34-44.94,56.93-69.7,83.5-22.67,24.32-45.84,48.54-64.52,76.16-19.68,29.1-32.65,61.63-32.32,97.14,0,.61.05,4.47,1.09,4.44s.87-4.09.86-4.49Z"/><path class="cls-3" d="M320.19,1409.58c-7.84-37.77.2-76.42,10.42-112.92s21.83-72.43,32.86-108.58l66.35-217.46,37.54-123a13.19,13.19,0,0,0,.2-6.12c-.1-.51-.82-3.39-1.37-1.57q-34.92,114.45-69.85,228.91-17.31,56.75-34.63,113.5c-11.48,37.65-23.82,75.15-34.06,113.17-10.57,39.25-17,80.14-8.68,120.46.4,1.9.85,1,1.38,0,.78-1.56.18-4.67-.16-6.31Z"/><path class="cls-3" d="M317.44,1398c-15.61-47.68-21.41-97.77-23.84-147.69-2.46-50.41-2.62-101-3.57-151.43q-.82-43.54-1.64-87.11c0-.61,0-4.46-1.08-4.44s-.87,4.09-.87,4.49q1.53,81.17,3.05,162.34c.95,50.12,1.75,100.43,8.72,150.16a471.72,471.72,0,0,0,18.43,81.42c.61,1.85,1.24-1.26,1.3-1.64a14.15,14.15,0,0,0-.5-6.1Z"/><path class="cls-3" d="M265.52,1332.09c-25.66-35-38-77.23-45.62-119.5-8.16-45.39-13-91.46-19.06-137.17l-11.13-84.28c-.18-1.32-.34-2.5-1.38-1.57s-.34,5-.2,6.12q10.11,76.44,20.2,152.88c5.72,43.24,10.86,87,24.78,128.59,7.58,22.63,18,44.27,32.1,63.56.73,1,1.12-3,1.13-3.15.08-1.57.18-4.11-.82-5.48Z"/></g><g class="cls-2"><path class="cls-3" d="M1332.17,2531.64c-20.4-76-12.32-155.43,11.88-229.54,21.25-65.07,56-123.81,86.56-184.71,15.16-30.21,29.15-61.07,40-93.14a481.78,481.78,0,0,0,22.63-104.59c8-77.68.85-155.8,1.19-233.65.16-36.19,2-72.57,8.09-108.29,5.38-31.83,14-64,30.27-92.08a166.67,166.67,0,0,1,12-17.84c1-1.33.73-4.15.57-5.71,0-.37-.61-4.13-1.32-3.21-18.94,24.61-30,54.25-37.32,84.17-8.35,34.25-11.88,69.6-13.42,104.76-3.47,79.56,4.8,159.17.36,238.72-2.18,39-8.18,77.63-19.54,115.1-10.36,34.2-24.54,67.08-40.33,99.1-30.44,61.76-66.2,120.92-88.52,186.37-24.22,71-34.5,147.84-20.84,222.13q2.69,14.63,6.56,29c.51,1.89.84,1.14,1.43,0,.76-1.54.27-4.93-.16-6.55Z"/><path class="cls-3" d="M1534.29,1460.27c-61.87,73.16-101.2,163.51-124.54,255.81-13.29,52.57-21.22,106.35-24.91,160.42-4,58.3-3.7,116.76-4,175.16-.36,65.68-1.29,131.61-10.49,196.76-.28,2,1.05,10.35,1.86,4.63,16.13-114.27,7.69-230.09,13-345,4.89-105.66,24.83-211,68.53-307.85,21.21-47,48-91.6,81.34-131,1.06-1.26.71-4.21.56-5.72,0-.39-.56-4.1-1.32-3.2Z"/><path class="cls-3" d="M1371.15,2245.94c16.08-45.45,40.95-86.64,71.1-124.1,28.15-35,60-66.64,90.35-99.69,31.33-34.15,60.49-70.12,83.24-110.65,25.55-45.52,44.2-94.65,59.8-144.36,18.86-60.07,33.29-121.42,47.7-182.67l-1.8-4.47c-4.36,88.2,5.4,176.23,8.45,264.3,2.89,83.73.12,170.23-35,247.81-29.68,65.58-79.68,118.19-136.91,160.77-28.86,21.47-59.72,40-88.94,61-32.08,23-61.6,49.59-83.33,82.84-40.58,62.09-51,145.78-32.2,217a243,243,0,0,0,9.14,27.68c.73,1.84,1.27-1.22,1.34-1.69a13.2,13.2,0,0,0-.52-6.33c-28.62-72.13-20-160.78,22-226.18,21.21-33,50.1-59.55,81.66-82.45,28.83-20.91,59.42-39.23,88.12-60.31,56.14-41.24,105.61-91.71,136.41-154.85,35.33-72.42,42-153.73,41-233.19-1.07-87.48-11.41-174.67-10.22-262.21q.21-15.86,1-31.71c0-.92-.85-8.5-1.8-4.47-13,55.33-26.07,110.71-42.4,165.18-15.25,50.82-33.27,101.22-58.14,148.2-21.88,41.33-50,78.24-81.21,112.92-30,33.34-62,64.83-90.79,99.26-33.69,40.3-61.7,84.76-79.28,134.46a13,13,0,0,0-.2,6.35c.11.58.77,3.47,1.42,1.62Z"/><path class="cls-3" d="M1326.94,2491.31c-12.73-35.78-1.4-73.52,12.11-107.29a414.49,414.49,0,0,1,46.74-86.64c17.21-24.16,37.42-46.31,60.7-64.75,13.62-10.79,28.4-20,42.35-30.31a233.34,233.34,0,0,0,38.83-36.94c28.78-33.88,56.47-68.74,84.65-103.12,1-1.29.71-4.19.57-5.72,0-.38-.58-4.11-1.33-3.2-26.41,32.23-52.68,64.58-79.26,96.68-12.52,15.13-25.67,29.31-41.35,41.23-14.58,11.09-30.25,20.67-44.65,32-52,41-88.34,99.44-111.59,160.81-13.85,36.54-22.09,77.33-8.6,115.27.67,1.88,1.28-1.27,1.34-1.7a13.86,13.86,0,0,0-.51-6.33Z"/><path class="cls-3" d="M1382.27,2171.36c27-41.24,42.6-89.21,50.32-137.63,9.09-57.08,3.18-114.84,9.85-172.11,3.8-32.63,10.15-64.88,16.52-97.08.37-1.86.65-4.79-.16-6.55-.57-1.24-1-1.92-1.43,0-5.45,27.55-10.84,55.13-14.73,83a641.48,641.48,0,0,0-6,85.81c-.13,28.64,0,57.16-3.53,85.63a403.17,403.17,0,0,1-17,77c-8.45,25.67-19.76,50.4-34.55,73.05-1,1.48-.73,4-.57,5.72,0,.35.71,4.14,1.32,3.2Z"/><path class="cls-3" d="M1176.47,2415.69c-21.11-55.22-42.87-112.66-45.4-172.37-1.23-29.08,3.94-57.51,8.67-86.07,4.61-27.88,7.65-55.75,5.26-84-2.77-32.88-11-65-19.32-96.81-.47-1.79-.91-1.26-1.43,0-.69,1.72-.3,4.8.16,6.55,7.77,29.88,15.74,60,18.54,90.83,2.74,30.21-1.91,59.72-6.91,89.43-4.63,27.47-8.27,54.91-6.86,82.85,1.43,28.23,6.8,56.11,14.26,83.34,8.78,32.05,20.35,63.24,32.21,94.25.71,1.86,1.27-1.24,1.34-1.7a13.47,13.47,0,0,0-.52-6.33Z"/><path class="cls-3" d="M1151.31,2372.37c-1-50.68-38.1-87.3-74.09-118.17-20.5-17.58-41.71-34.36-61.1-53.19a301.43,301.43,0,0,1-46-56.15c-15.24-24.41-26.47-51.44-31.16-79.91-.23-1.39-.32-2.56-1.43-1.62s-.38,5.26-.2,6.34c7.71,46.82,31.38,89.44,63,124.38,34.78,38.43,79.73,66.1,114.2,104.72,18,20.2,34.17,45.75,34.71,73.65,0,.51.15,4.79,1.12,4.61s.91-4.07.9-4.66Z"/><path class="cls-3" d="M1128.75,2302.45c-74.71-60.07-109.24-155.83-119.16-248.58-12.07-112.85,6.44-226.12,1.11-339.17-2.79-58.9-11.76-117.91-33.78-172.9l-.55,8.18a1154.87,1154.87,0,0,1,85.22,179.44,1154.49,1154.49,0,0,1,53.23,191.15q10.34,55.29,15.22,111.41c.54,6.16,2.1.78,1.82-2.43a1169.66,1169.66,0,0,0-34.55-198.15A1165.83,1165.83,0,0,0,1029,1641.64q-23.7-51.41-52.37-100.29c-.57-1-1.08,2.62-1.08,2.62a12.81,12.81,0,0,0,.53,5.57c41.73,104.2,34.7,218.4,29.88,328.17-4.57,104.16-6.75,212.16,33.71,310.33,19.49,47.29,48.65,90.81,88.73,123,.5.4,2-7.23.31-8.62Z"/><path class="cls-3" d="M933.3,2081.23a1292,1292,0,0,0-70.82-329.72q-16.22-45.4-35.82-89.47l-.55,8.19c14.39,9.2,24.77,22.73,34.78,36.31,10.58,14.36,21.7,27.84,34.55,40.25,26.14,25.27,56,47.42,75.82,78.43,11.25,17.58,19.44,38,18,59.14-.21,3.19,1.52,8.54,1.94,2.33,5.5-82.76-80.85-123.08-123.85-180.41-12.16-16.22-23.57-33.56-41-44.68-1.31-.84-1,7.26-.56,8.18A1274.92,1274.92,0,0,1,920.24,1989q7.41,47.09,11.24,94.63c.5,6.16,2.08.78,1.82-2.43Z"/><path class="cls-3" d="M1104,1830.59c-4.78-33.25,6.17-66,21.42-95.2s35-56,54.06-83c40.14-56.88,73.67-118,99.08-182.89a849.47,849.47,0,0,0,35.06-111.86,12.27,12.27,0,0,0-.06-5.87c-.17-.52-.72-2.78-1.29-1.12-22.93,66.28-16.53,137.55-13.08,206.27,3.48,69.27,5.34,138.71,2,208-3.33,69-11.88,137.93-29.62,204.73a700.74,700.74,0,0,1-33,96.21c-14.22,33.16-31.76,64.69-47.88,96.93-29.62,59.22-54.25,125.33-40.63,192.47a170.59,170.59,0,0,0,6.53,23.27c.65,1.81,1.23-1.23,1.3-1.64a13.55,13.55,0,0,0-.5-6.1c-24.32-68.13,4.26-140.09,34.88-201.08,15.22-30.33,31.66-60.07,45.31-91.17a692.13,692.13,0,0,0,33-93.39c17.47-63.06,26.76-128.11,31.1-193.32,4.44-66.7,3.75-133.63,1-200.38-1.39-34-3.81-67.92-4.76-101.91-1-35.45,0-71.24,8.12-105.91a255.17,255.17,0,0,1,7.35-25.31l-1.35-7a841.34,841.34,0,0,1-78.25,204.22,899.69,899.69,0,0,1-57,91c-19.68,27.82-40,55.54-55.15,86.19-15.81,32-24.36,66.69-19.22,102.38.19,1.31.33,2.51,1.37,1.57s.36-5,.2-6.12Z"/><path class="cls-3" d="M1139.6,2317.7c-12.32-34.94-10.72-72.15-6-108.34,4.91-37.46,11.8-74.71,17.89-112q18.59-113.67,37.16-227.34,10.53-64.45,21.07-128.92c.27-1.68.76-4.78-.16-6.31-.58-1-1-2-1.38,0q-19.53,119.57-39.08,239.14-9.73,59.54-19.46,119.08c-6.23,38.13-13.33,76.23-18.18,114.56-5,39.25-6,80,7.33,117.82.64,1.82,1.23-1.23,1.29-1.64a13.56,13.56,0,0,0-.5-6.1Z"/><path class="cls-3" d="M1135.63,2307.28c-21.63-44.71-34.23-93-43.39-141.6-9.44-50.19-16.39-100.88-24.17-151.35q-6.79-44-13.58-88.06c-.2-1.31-.32-2.51-1.37-1.57s-.37,5-.2,6.12q12.38,80.23,24.74,160.47c7.57,49.16,15,98.55,28.45,146.52a467.19,467.19,0,0,0,28.72,77.21c.81,1.67,1.22-1.07,1.3-1.64a11.94,11.94,0,0,0-.5-6.1Z"/><path class="cls-3" d="M1075.42,2248.84c-29.32-30.47-47.09-69.26-60.26-109-14.77-44.53-25.79-90.41-38.09-135.65l-22.83-83.94c-.49-1.83-.81-1.11-1.37,0-.74,1.48-.27,4.77.15,6.32l41,150.71c11.28,41.48,22.12,83.64,41.32,122.33,10.46,21.07,23.45,40.81,39.79,57.79.87.9,1.11-2.89,1.12-3.15.08-1.37.27-4.35-.81-5.48Z"/></g><g class="cls-2"><path class="cls-3" d="M1611.11,1257c-20.4-76-12.31-155.43,11.89-229.53,21.25-65.08,56-123.82,86.56-184.71,15.15-30.22,29.15-61.08,40-93.15a481.51,481.51,0,0,0,22.62-104.59c8-77.67.86-155.8,1.2-233.64.16-36.19,2-72.57,8.08-108.3,5.38-31.83,14-64,30.28-92.07a164.69,164.69,0,0,1,12-17.84c1-1.34.73-4.16.57-5.72,0-.36-.62-4.12-1.33-3.2-18.93,24.61-30,54.24-37.31,84.17-8.36,34.24-11.88,69.6-13.42,104.76-3.48,79.56,4.79,159.17.36,238.71-2.18,39.06-8.18,77.63-19.54,115.1-10.37,34.2-24.55,67.09-40.33,99.11-30.44,61.76-66.2,120.91-88.52,186.37-24.22,71-34.5,147.84-20.84,222.13q2.68,14.63,6.55,29c.51,1.9.85,1.15,1.43,0,.77-1.54.28-4.94-.16-6.56Z"/><path class="cls-3" d="M1813.24,185.66c-61.87,73.17-101.2,163.51-124.54,255.82-13.29,52.57-21.22,106.34-24.92,160.41-4,58.3-3.7,116.77-4,175.17-.36,65.68-1.3,131.61-10.5,196.75-.28,2,1.06,10.35,1.87,4.63,16.13-114.27,7.68-230.08,13-345C1669,527.78,1689,422.4,1732.66,325.6c21.21-47,48-91.61,81.34-131,1.06-1.25.7-4.21.56-5.71,0-.39-.56-4.11-1.32-3.21Z"/><path class="cls-3" d="M1650.1,971.34c16.07-45.46,40.94-86.65,71.1-124.11,28.14-35,60-66.64,90.35-99.68,31.33-34.16,60.49-70.13,83.23-110.66,25.55-45.52,44.21-94.65,59.81-144.35,18.85-60.07,33.29-121.42,47.7-182.68l-1.8-4.46c-4.36,88.19,5.4,176.22,8.44,264.29,2.9,83.74.12,170.23-35,247.81-29.69,65.59-79.69,118.19-136.91,160.77-28.86,21.48-59.72,40-88.94,61-32.08,23-61.61,49.59-83.34,82.84-40.57,62.09-51,145.79-32.19,217a242.46,242.46,0,0,0,9.14,27.69c.73,1.84,1.27-1.22,1.34-1.7a13.33,13.33,0,0,0-.52-6.33c-28.63-72.12-20-160.77,22-226.17,21.21-33,50.09-59.56,81.66-82.46,28.82-20.9,59.42-39.22,88.12-60.31,56.14-41.24,105.6-91.7,136.41-154.84,35.33-72.43,42-153.73,41-233.19-1.07-87.49-11.41-174.68-10.22-262.21q.21-15.87,1-31.72c0-.91-.85-8.5-1.8-4.46-13,55.33-26.07,110.71-42.41,165.17-15.24,50.83-33.26,101.22-58.14,148.21-21.87,41.32-50,78.24-81.2,112.92-30,33.33-62,64.83-90.79,99.25-33.7,40.31-61.7,84.76-79.28,134.46a13,13,0,0,0-.21,6.35c.12.58.78,3.47,1.43,1.63Z"/><path class="cls-3" d="M1605.88,1216.7c-12.72-35.77-1.39-73.51,12.12-107.29a414,414,0,0,1,46.74-86.63c17.2-24.17,37.41-46.32,60.7-64.76,13.62-10.78,28.39-20,42.35-30.3a233,233,0,0,0,38.83-37c28.78-33.88,56.47-68.74,84.65-103.12,1-1.28.7-4.19.56-5.71,0-.39-.58-4.11-1.32-3.21-26.42,32.23-52.68,64.59-79.26,96.68-12.53,15.13-25.68,29.31-41.36,41.24-14.58,11.09-30.25,20.67-44.64,32-52,41-88.34,99.44-111.6,160.81-13.85,36.54-22.08,77.32-8.59,115.26.67,1.89,1.28-1.27,1.34-1.7a14,14,0,0,0-.52-6.33Z"/><path class="cls-3" d="M1661.22,896.76c26.94-41.25,42.6-89.22,50.31-137.64,9.09-57.08,3.19-114.83,9.86-172.1,3.8-32.63,10.15-64.88,16.52-97.09.37-1.85.65-4.78-.16-6.55-.57-1.24-1-1.92-1.43,0-5.45,27.55-10.84,55.12-14.73,82.95a639.67,639.67,0,0,0-6,85.8c-.13,28.65,0,57.16-3.54,85.64a402.88,402.88,0,0,1-17,77c-8.45,25.67-19.76,50.4-34.56,73.06-1,1.48-.72,4-.56,5.71,0,.35.71,4.15,1.32,3.21Z"/><path class="cls-3" d="M1455.42,1141.09c-21.11-55.23-42.87-112.67-45.4-172.38-1.23-29.08,3.93-57.51,8.66-86.07,4.62-27.87,7.65-55.74,5.27-84-2.77-32.89-11-65-19.33-96.81-.46-1.79-.91-1.27-1.43,0-.68,1.72-.29,4.8.16,6.56,7.78,29.87,15.74,60,18.54,90.83,2.75,30.2-1.91,59.72-6.91,89.42-4.63,27.48-8.27,54.92-6.85,82.85,1.42,28.23,6.79,56.12,14.26,83.34,8.78,32.05,20.35,63.24,32.21,94.25.71,1.86,1.27-1.23,1.34-1.69a13.45,13.45,0,0,0-.52-6.33Z"/><path class="cls-3" d="M1430.26,1097.76c-1-50.68-38.1-87.29-74.09-118.17-20.5-17.58-41.72-34.35-61.1-53.18a300.77,300.77,0,0,1-46-56.16c-15.24-24.4-26.47-51.43-31.17-79.9-.22-1.39-.32-2.57-1.42-1.63s-.39,5.26-.21,6.35c7.72,46.82,31.38,89.44,63,124.38,34.77,38.42,79.72,66.09,114.2,104.71,18,20.21,34.17,45.76,34.71,73.65,0,.52.14,4.8,1.12,4.61s.91-4.07.9-4.66Z"/><path class="cls-3" d="M1407.69,1027.84C1333,967.78,1298.46,872,1288.54,779.26c-12.07-112.85,6.44-226.11,1.1-339.16-2.78-58.9-11.76-117.92-33.77-172.91l-.56,8.18A1156.7,1156.7,0,0,1,1393.76,646q10.35,55.31,15.23,111.41c.54,6.17,2.1.79,1.82-2.42A1167.63,1167.63,0,0,0,1308,367q-23.71-51.39-52.37-100.28c-.57-1-1.09,2.61-1.09,2.61a12.8,12.8,0,0,0,.54,5.57c41.72,104.2,34.7,218.41,29.88,328.18-4.57,104.16-6.75,212.15,33.71,310.32,19.48,47.29,48.64,90.81,88.73,123,.49.4,2-7.24.3-8.63Z"/><path class="cls-3" d="M1212.25,806.63a1292.13,1292.13,0,0,0-70.83-329.73q-16.2-45.39-35.81-89.46l-.56,8.18c14.4,9.21,24.78,22.74,34.79,36.31,10.58,14.36,21.7,27.84,34.54,40.26,26.15,25.27,56,47.41,75.83,78.43,11.24,17.57,19.43,38,18,59.14-.21,3.18,1.53,8.53,1.94,2.33,5.51-82.77-80.84-123.08-123.84-180.42-12.16-16.22-23.57-33.55-41-44.68-1.3-.83-1,7.26-.55,8.19a1275.14,1275.14,0,0,1,94.38,319.24q7.41,47.08,11.23,94.63c.5,6.17,2.09.78,1.83-2.42Z"/><path class="cls-3" d="M1382.92,556c-4.79-33.25,6.17-66,21.42-95.2s35-56,54.06-83c40.14-56.89,73.67-118,99.08-182.89a850.07,850.07,0,0,0,35.06-111.87,12.23,12.23,0,0,0-.07-5.86c-.17-.52-.71-2.79-1.28-1.12-22.93,66.28-16.54,137.55-13.08,206.27,3.48,69.26,5.34,138.71,2,208-3.33,68.94-11.89,137.92-29.63,204.73a699.23,699.23,0,0,1-33,96.2c-14.22,33.16-31.76,64.7-47.88,96.93-29.62,59.22-54.25,125.34-40.63,192.48a169,169,0,0,0,6.53,23.26c.65,1.82,1.23-1.22,1.29-1.64a13.44,13.44,0,0,0-.5-6.1c-24.31-68.12,4.26-140.09,34.88-201.08,15.23-30.33,31.67-60.07,45.32-91.17a692,692,0,0,0,33-93.38c17.47-63.06,26.75-128.12,31.1-193.33,4.44-66.69,3.74-133.63,1-200.38-1.39-34-3.8-67.92-4.76-101.91-1-35.44,0-71.24,8.13-105.91a255.77,255.77,0,0,1,7.35-25.3l-1.35-7A841.83,841.83,0,0,1,1512.76,281a902.14,902.14,0,0,1-57,91c-19.68,27.83-40,55.54-55.15,86.19-15.81,32-24.36,66.7-19.23,102.38.19,1.31.33,2.51,1.38,1.57s.36-5,.2-6.12Z"/><path class="cls-3" d="M1418.55,1043.09c-12.33-34.94-10.72-72.15-6-108.34,4.91-37.45,11.8-74.7,17.89-112Q1449,709.1,1467.62,595.44q10.53-64.46,21.07-128.92c.27-1.68.75-4.78-.16-6.32-.58-1-1-2-1.38,0q-19.55,119.58-39.08,239.15-9.73,59.54-19.46,119.08c-6.24,38.12-13.34,76.22-18.19,114.55-5,39.25-6,80,7.33,117.82.65,1.82,1.24-1.23,1.3-1.64a13.56,13.56,0,0,0-.5-6.1Z"/><path class="cls-3" d="M1414.58,1032.68c-21.63-44.71-34.24-93-43.39-141.61-9.44-50.19-16.4-100.88-24.18-151.34q-6.78-44-13.57-88.07c-.2-1.3-.32-2.51-1.37-1.57s-.37,5-.2,6.12q12.36,80.24,24.73,160.47c7.58,49.16,15,98.56,28.46,146.53a465.29,465.29,0,0,0,28.72,77.2c.81,1.68,1.21-1.06,1.3-1.63.25-1.75.3-4.45-.5-6.1Z"/><path class="cls-3" d="M1354.36,974.24c-29.31-30.47-47.08-69.27-60.25-109-14.78-44.52-25.79-90.4-38.09-135.65l-22.83-83.94c-.49-1.82-.81-1.11-1.38,0-.73,1.48-.27,4.76.16,6.31l41,150.71c11.28,41.49,22.12,83.65,41.32,122.34,10.45,21.07,23.45,40.8,39.79,57.79.86.9,1.11-2.89,1.12-3.15.07-1.37.27-4.36-.82-5.48Z"/></g><g class="cls-2"><path class="cls-3" d="M2203.41,2989.69c22.49-46.67,48.35-91.65,70-138.74,21.9-47.67,36.85-97.48,43.8-149.54,7.12-53.28,4.46-107.92,2.74-161.47-1.66-51.63-2.54-103.08,2.39-154.57s16.44-103.77,47.34-146.34c.87-1.2.41-4.33.36-5.74,0-.5-.32-3.69-.63-3.26-26.62,36.67-38.93,80.83-45.06,125.19-6.59,47.59-7.67,96-6.63,143.94,1.2,55.81,4.82,111.7,1.37,167.5-3.35,54.12-16.71,107.77-38.07,157.56-23,53.59-52.57,104-77.86,156.47-.75,1.54-.42,4.08-.36,5.74,0,.53.45,3.64.63,3.26Z"/><path class="cls-3" d="M2359.87,2231.25c-30,34.93-54.74,74-74.73,115.49a718.47,718.47,0,0,0-48.62,132.62,923.77,923.77,0,0,0-25.58,154.55c-4.41,53.88-4.46,108.08-4.65,162.11-.11,30.75-.18,61.5-1,92.24-.39,15.5-1,31-1.8,46.48-.85,15.65,0,31.29-3,46.78a24,24,0,0,0-.18,6.39c0,.45.36,3.42.7,1.67,2.29-11.75,2.88-23.71,3-35.66.16-12.83.93-25.61,1.43-38.44,1.06-27,1.44-54.1,1.63-81.15.36-54.34-.13-108.72,2.6-163,5.16-102.24,25.52-203.43,67.18-297.25,21.35-48.08,48.6-93.54,82.94-133.49.82-.95.51-3.49.51-4.66,0-.59-.69-4.47-.51-4.67Z"/><path class="cls-3" d="M2206.82,2990c18.79-42.21,45.45-80.23,75.55-115.11,31.7-36.73,66.73-70.44,98.17-107.41,29.75-35,55.51-72.78,75.58-114.15,21-43.24,36.8-88.8,50.45-134.81,15.87-53.49,28.67-107.82,41.44-162.1l-.7-6.39c-4.39,88.89,5.31,177.54,8.38,266.3,3,87.1-.73,176.67-39.71,256.38-19.94,40.78-48.12,76.92-80.88,108.18-.85.8-.52,3.61-.52,4.67,0,.49.61,4.57.52,4.66,29.18-27.84,54.75-59.49,74.13-94.94,19.92-36.45,32.77-76.43,39.81-117.29,15.05-87.37,7.51-177.21,2.4-265.12-3.06-52.63-5.85-105.42-3.25-158.13a20.17,20.17,0,0,0-.08-5.65c-.12-.48-.29-2.15-.62-.73-22.47,95.5-44.37,192.85-85.3,282.5a537.18,537.18,0,0,1-74.74,119c-30.35,36.82-64.67,70.08-96.35,105.71-33.66,37.84-63.87,78.93-84.55,125.4-.72,1.6-.42,4-.36,5.74,0,.54.47,3.62.63,3.26Z"/><path class="cls-3" d="M2290.35,2990.07c13.79-9.57,27.41-19.44,40-30.61,13.05-11.62,24.2-24.9,35.32-38.32,24-29,47.64-58.36,71.51-87.49.81-1,.51-3.46.51-4.67,0-.6-.7-4.42-.51-4.66-23.87,29.13-47.47,58.49-71.51,87.49-11.12,13.42-22.27,26.69-35.32,38.31-12.55,11.17-26.17,21-40,30.62-.84.58-.51,3.77-.51,4.66,0,.4.47,4.7.51,4.67Z"/><path class="cls-3" d="M2207.47,2942.55c27-41.24,42.6-89.21,50.32-137.63,9.09-57.09,3.18-114.84,9.85-172.11,3.8-32.63,10.15-64.88,16.52-97.09.37-1.85.65-4.78-.16-6.55-.57-1.24-1-1.92-1.43,0-5.45,27.55-10.84,55.12-14.73,82.95a641.48,641.48,0,0,0-6,85.81c-.13,28.64,0,57.15-3.53,85.63a402.9,402.9,0,0,1-17,77c-8.45,25.68-19.76,50.41-34.55,73.06-1,1.48-.73,4-.57,5.71,0,.35.71,4.15,1.32,3.21Z"/><path class="cls-3" d="M1956.05,2988.65c3.66-32.76,9.92-65.16,13.42-97.93,3.25-30.52.09-60.58-6.26-90.51-3.79-17.88-8.45-35.56-12.71-53.33-.43-1.78-.68,1.39-.7,1.68a21,21,0,0,0,.18,6.38c8.82,36.77,20.15,74.08,20,112.23-.08,19.72-4,39.85-6.93,59.3-2.79,18.5-5.66,37-7.74,55.58a19.5,19.5,0,0,0,0,6.6c.32,1.25.51,1.91.73,0Z"/><path class="cls-3" d="M1850.12,2980.46c-42.25-39-76.94-88.23-86.47-146-.3-1.84-.68,1.45-.7,1.67a25.78,25.78,0,0,0,.18,6.39c9.62,58.29,44.34,107.86,87,147.27,0,0,.51-4.24.51-4.67,0-1.07.38-3.84-.51-4.67Z"/><path class="cls-3" d="M1879.48,2981.2c-11-18.2-18.26-38.11-24.65-58.29-3.2-10.11-6.54-20.22-9.45-30.41-3.27-11.45-5-23.27-6.68-35-3.42-23.37-6.32-46.65-7.62-70.25-1.32-24.1-1.41-48.26-.87-72.38,2-88.29,11.15-176.3,3.5-264.58-4.08-47.13-12.9-94.18-31.86-137.75l-.26,8.68c2.51,4.28,6.48,9.2,8,14l.13-8.84c-1.26.23-7.21-12.31-7.86-13.85l-.26,8.68a1118.93,1118.93,0,0,1,85.27,179.36,1181.1,1181.1,0,0,1,53.22,192.4q10.49,55.7,15.72,112.18c.17,1.79.32,1.14.7,0,.6-1.76.18-4.53,0-6.36a1227,1227,0,0,0-34.35-195.7,1155.46,1155.46,0,0,0-67.39-189.37,1108.76,1108.76,0,0,0-52.91-101.19c-.33-.56-.6,2.9-.61,3.15-.06,1.64-.31,4,.35,5.53s6.72,14.43,8.12,14.17c1.13-.21.42-7.91.13-8.84-1.51-4.82-5.48-9.72-8-14-.33-.56-.6,2.9-.61,3.15-.06,1.62-.33,4,.35,5.53,35.48,81.53,36.64,174.26,33.25,261.64-3.48,89.61-12.21,180.12,1.36,269.34,1.89,12.45,3.45,25,6,37.35,2.47,11.68,6.38,23,9.91,34.39,7.06,22.78,14.69,45.44,27.06,66,.34.56.6-2.9.61-3.15.06-1.42.45-4.22-.35-5.53Z"/><path class="cls-3" d="M1758.5,2852.42a1292.11,1292.11,0,0,0-70.82-329.73q-16.22-45.39-35.82-89.46l-.55,8.18c14.39,9.21,24.77,22.74,34.78,36.32,10.58,14.35,21.7,27.83,34.55,40.25,26.14,25.27,56,47.41,75.82,78.43,11.25,17.57,19.44,38,18,59.14-.21,3.18,1.52,8.53,1.94,2.33,5.5-82.76-80.85-123.08-123.85-180.42-12.16-16.22-23.57-33.55-41-44.68-1.31-.83-1,7.26-.56,8.19a1275.27,1275.27,0,0,1,94.38,319.24q7.41,47.1,11.24,94.63c.5,6.17,2.08.78,1.82-2.42Z"/><path class="cls-3" d="M1928.63,2600.16c-6.11-36,8.93-72.16,26.15-103.07,8.54-15.34,18.6-29.6,28.7-43.93,5.22-7.39,10.2-14.91,15.12-22.5a59.16,59.16,0,0,1,7.39-9.16,63,63,0,0,0,6.76-9c37.65-55.56,70-114.8,93.92-177.57a764.65,764.65,0,0,0,31.61-105.38,21.59,21.59,0,0,0,.2-5.62c0-.42-.45-3-.58-2.61q-3.62,10.29-7.18,20.57a35.16,35.16,0,0,0-1.91,5.8c-.22,1.42.5,8.06.38,8.23,2.26-3.1,3.11-8.59,4.37-12.19,1.63-4.68,3.5-9.37,4.72-14.18a19.6,19.6,0,0,0,.2-5.62c0-.42-.44-3-.58-2.61a243.1,243.1,0,0,0-14.48,79.59c-.24,13.58-1.39,27.13-1.58,40.71-.22,15,0,30,.49,45,1,29.57,3,59.09,4.68,88.62,1.7,30.37,1.87,60.85,1.76,91.26-.21,59.87-2.75,120.06-11.59,179.34a821.67,821.67,0,0,1-41.1,162.14c-22,59.84-55.88,114.32-81.36,172.63-.68,1.55-.41,3.89-.34,5.54,0,.52.45,3.49.6,3.14,22.74-52,52.82-100.78,74-153.47,20.53-51,35.21-104.45,44.81-158.54,9.83-55.38,13.85-111.62,15.32-167.8.77-29.31.78-58.64.35-88-.44-29.6-2.13-59.07-3.85-88.63-2-34.61-3.72-69.3-2.48-104,.59-16.4.84-33.11,2.88-49.39a225.5,225.5,0,0,1,12.12-49.5l-.38-8.22c-1.08,4.26-3.13,9.42-4.71,13.9-1.19,3.4-2,8.63-4.15,11.56l.39,8.23c-.13.84.37-1.08.48-1.39l1.47-4.29q3.42-9.9,6.9-19.79l-.38-8.22A777.75,777.75,0,0,1,2064.51,2318q-12.42,23.28-26.21,45.81-7,11.44-14.31,22.7c-5.14,7.93-10.06,16.46-16,23.79-2.1,2.56-4.54,4.81-6.61,7.42-3,3.83-5.42,8.14-8.12,12.21-5.11,7.73-10.51,15.26-15.86,22.82a380.25,380.25,0,0,0-29.14,47.47c-16.9,33.43-26.45,70.24-20.09,107.71.31,1.77.66-1.4.68-1.62a24.44,24.44,0,0,0-.18-6.16Z"/><path class="cls-3" d="M1957.38,2988.63c3.77-31.4,9.53-62.51,14.63-93.7q7.48-45.76,15-91.54L2017.6,2616q8.42-51.47,16.82-102.94a24.82,24.82,0,0,0,.18-6.15c0-.43-.4-3.31-.68-1.62l-61.14,374.09c-5.6,34.25-12,68.42-16.1,102.9-.22,1.87-.6,4.55,0,6.36.37,1.12.47,1.93.7,0Z"/><path class="cls-3" d="M1926.74,2981.21c-17.21-73.29-26.65-148-37.64-222.41-3.1-21-6.35-42-9.94-63-.31-1.77-.66,1.4-.68,1.62a24.44,24.44,0,0,0,.18,6.16c12.66,73.9,21,148.49,34.48,222.25,3.87,21.14,8.19,42.19,13.1,63.11.41,1.73.65-1.34.68-1.61a20.52,20.52,0,0,0-.18-6.16Z"/><path class="cls-3" d="M1871,2980.89c-20.37-32.07-31.37-68.91-42.11-105-11.79-39.65-21.7-79.81-32-119.86-5.67-22-11.51-43.89-17.85-65.68-.14-.48-.59,2.84-.61,3.14a18.06,18.06,0,0,0,.35,5.54c22.47,77.2,38,156.56,64.8,232.48,7.13,20.23,15.67,40,27.2,58.1.35.56.59-2.9.6-3.14.06-1.39.47-4.27-.34-5.54Z"/></g><g class="cls-2"><path class="cls-3" d="M2609.82,759c-14.72-53.44-15.41-111-4.92-165.36,9.34-48.32,26.21-94.73,47.14-139.18s46.3-86.3,67-130.71c20.42-43.73,37.28-89.33,46.62-136.78,11.19-56.86,9-115,8.2-172.61,0-.44.08-4.67-.51-4.67s-.51,4.51-.51,4.67c.71,55,3,110.32-7.7,164.55-9.68,49.17-27.55,96.3-49,141.46-21.66,45.58-47.93,88.76-68.85,134.71-20.51,45-36.65,92.27-44.86,141.16-4.7,28-6.1,57-5.36,85.32A360.81,360.81,0,0,0,2609.55,768c.13.48.62-2.93.63-3.26a19.47,19.47,0,0,0-.36-5.75Z"/><path class="cls-3" d="M2674.64,9.38c-8.76,59.34-12.3,119.26-14,179.18-1.71,60.53-2.9,121.21-3.1,181.77-.11,35.15-1.25,70.37-8.4,104.9a22.72,22.72,0,0,0-.18,6.38c0,.46.34,3.42.7,1.67,5.93-28.62,8-57.84,8.62-87,.65-29.67.82-59.37,1.29-89,1-61.28,1.25-122.62,4.94-183.82,2.14-35.45,5.45-70.82,10.63-106a27.8,27.8,0,0,0,.19-6.38c0-.44-.44-3.44-.7-1.68Z"/><path class="cls-3" d="M3005.92,16.47c4.61,73.57,8.41,147.92-5.73,220.75a378.14,378.14,0,0,1-33.31,98.46A340.61,340.61,0,0,1,2909,417a575.27,575.27,0,0,1-69.94,62c-25.39,19.22-52.45,35.75-78.7,53.71-48.47,33.16-94,73.53-115.78,129.52-22.6,58-28.43,124.66-11.31,185a238.25,238.25,0,0,0,7.92,23.15c.22.55.62-3,.63-3.26.06-1.73.31-4.07-.36-5.74-25.46-63.94-19.93-134.67,6.35-197.44,23.09-55.14,71.59-94.54,120-126.88,26.28-17.56,52.88-34.34,77.88-53.75a562.29,562.29,0,0,0,68.58-62.57c45-48.7,73.54-109.62,86.26-174.47,13.41-68.37,11.87-138.49,7.91-207.71q-.76-13.39-1.62-26.77c-.07-1.12.14-2.65-.71-1.68s-.25,5.2-.18,6.39Z"/><path class="cls-3" d="M2648.83,475a399.87,399.87,0,0,1,46.81-91.67c20.4-29.92,44.4-57.17,69-83.63,25.21-27.07,51.18-53.49,74.85-81.94,22.36-26.87,42.45-55.54,59-86.36,19.4-36.14,34.59-74.39,47.68-113.22a17,17,0,0,0,.36-5.74,14.34,14.34,0,0,0-.63-3.26c-11.6,34.4-24.83,68.31-41.19,100.74a510.46,510.46,0,0,1-57.82,89.45c-45.45,56.74-100.86,104.83-143.68,163.79-22.91,31.56-41.65,66-54.67,102.84-.61,1.72-.42,3.94-.36,5.74,0,.58.52,3.57.63,3.26Z"/><path class="cls-3" d="M2605.09,719.83c-12.72-35.78-1.39-73.51,12.11-107.29a414.63,414.63,0,0,1,46.74-86.63c17.21-24.17,37.42-46.32,60.71-64.76,13.62-10.78,28.39-20,42.34-30.3a232.67,232.67,0,0,0,38.84-37c28.78-33.88,56.47-68.74,84.64-103.12,1.06-1.28.71-4.19.57-5.72,0-.38-.58-4.11-1.32-3.2-26.42,32.23-52.68,64.59-79.26,96.68-12.53,15.13-25.68,29.31-41.36,41.24-14.58,11.08-30.25,20.66-44.65,32-52,41-88.33,99.44-111.59,160.8-13.85,36.54-22.08,77.33-8.6,115.27.68,1.89,1.28-1.27,1.35-1.7a14,14,0,0,0-.52-6.33Z"/><path class="cls-3" d="M2660.19,399.92c26.32-40.33,41.93-87,49.6-134.38,8.45-52.22,3.9-105.24,8.52-157.75,2.66-30.2,7.84-60.12,13.55-89.87a23.58,23.58,0,0,0,.18-6.39c0-.45-.36-3.42-.7-1.67-4.88,25.46-9.35,51-12.28,76.78s-3.73,51.63-4.12,77.54c-.41,26.81-.63,53.69-3.85,80.34a380.81,380.81,0,0,1-16.38,73,312.6,312.6,0,0,1-34.8,73.35c-.85,1.3-.41,4.26-.36,5.74,0,.51.36,3.69.64,3.26Z"/><path class="cls-3" d="M2454.63,644.21c-21.11-55.22-42.88-112.66-45.4-172.37-1.24-29.08,3.93-57.51,8.66-86.07,4.62-27.87,7.65-55.74,5.27-84-2.77-32.88-11-65-19.33-96.8-.47-1.8-.91-1.27-1.43,0-.69,1.72-.3,4.8.16,6.55,7.78,29.88,15.74,60,18.54,90.84,2.75,30.2-1.91,59.72-6.91,89.42-4.63,27.48-8.27,54.92-6.86,82.85,1.43,28.23,6.8,56.12,14.26,83.34,8.79,32,20.36,63.24,32.21,94.25.71,1.86,1.28-1.24,1.35-1.7a13.74,13.74,0,0,0-.52-6.33Z"/><path class="cls-3" d="M2429.47,600.89c-1-50.68-38.1-87.3-74.1-118.17-20.49-17.58-41.71-34.35-61.1-53.19a301.38,301.38,0,0,1-45.94-56.15c-15.25-24.41-26.48-51.44-31.17-79.9-.23-1.39-.32-2.57-1.42-1.63s-.39,5.26-.21,6.35c7.72,46.82,31.38,89.43,63,124.38,34.78,38.42,79.73,66.09,114.21,104.71,18,20.21,34.17,45.75,34.7,73.65,0,.51.15,4.79,1.13,4.61s.91-4.07.9-4.66Z"/><path class="cls-3" d="M2360.55,18.34c20.51,61.69,33.4,125.61,41.94,190,2.39,18,4.44,36.06,6.27,54.14.18,1.78.31,1.15.7,0,.59-1.75.18-4.54,0-6.36-6.54-64.73-16.16-129.28-32.61-192.29q-7.14-27.34-16-54.16c-.17-.5-.6,2.86-.61,3.14a16.37,16.37,0,0,0,.35,5.54Z"/><path class="cls-3" d="M2406.75,530.78c-55.22-47-89.92-111-106.87-180.94-17.08-70.45-18-143.71-15.81-215.79,1.23-39.76,3.54-79.48,5.06-119.23,0-1,.51-4.85-.34-5.53-.5-.41-.6,2.9-.61,3.14-2.84,73.94-8.21,147.92-4.89,221.94,3.22,71.58,14.3,144.7,47.28,209.13a314,314,0,0,0,76.18,96.28s.49-4.11.49-4.5c0-1,.37-3.76-.49-4.5Z"/><path class="cls-3" d="M2219.75,18.05c24.07,24,50.63,57.56,48.23,93.73-.09,1.34-.72,5.09.18,6.15s.6-.43.68-1.61a110.63,110.63,0,0,0-11-56.87c-9.36-19-23.14-35.52-38.07-50.4,0,0-.5,4.06-.5,4.5,0,1.08-.35,3.65.5,4.5Z"/><path class="cls-3" d="M2211,308.7A1292.75,1292.75,0,0,0,2170.4,75.43q-9-33.26-19.77-66c-.17-.5-.6,2.86-.61,3.14a16.61,16.61,0,0,0,.34,5.54,1278.88,1278.88,0,0,1,52.56,228.29q4.48,33.3,7.19,66.81c.09,1.07-.14,2.56.68,1.61s.27-5,.18-6.15Z"/><path class="cls-3" d="M2578.8,11.26c-5.38,85.17-19.06,170.79-49.08,251-14.18,37.88-32.31,73.89-50.84,109.78-18.29,35.39-36,71.39-45.86,110.19-10.34,40.7-12.29,85.32,2,125.34.18.52.6-2.87.61-3.15a15.59,15.59,0,0,0-.35-5.53c-28.08-78.78,13.34-159.23,49-228,18-34.76,35-70.06,48.32-106.94s23.24-75.14,30.65-113.69c8.52-44.37,13.6-89.34,16.45-134.41.08-1.35.72-5.09-.18-6.16-.77-.92-.6.43-.68,1.61Z"/><path class="cls-3" d="M2381.59,57.5a116.79,116.79,0,0,1,1.51-39.59,22.3,22.3,0,0,0,.17-6.16c0-.44-.34-3.3-.67-1.61a164.11,164.11,0,0,0-1.51,55.13c.25,1.79.66-1.41.68-1.61a27,27,0,0,0-.18-6.16Z"/><path class="cls-3" d="M2417.49,545.75a152.89,152.89,0,0,1-10-52.23c-.3-17.78,2.32-35.37,4.69-52.94q7.05-52.2,15.21-104.25c10.53-67.93,22.08-135.69,33.41-203.48q9.59-57.31,18.73-114.69a25.92,25.92,0,0,0,.18-6.16c0-.42-.41-3.31-.68-1.62-11.36,72.14-23.75,144.11-35.69,216.15-12,72.34-23.52,144.78-33.17,217.47-4.9,36.91-6.58,75,7,110.43.2.53.59-2.88.6-3.15.07-1.68.28-3.91-.34-5.53Z"/><path class="cls-3" d="M2413.78,535.8c-21.62-44.71-34.23-93-43.38-141.6C2361,344,2354,293.32,2346.22,242.85q-6.78-44-13.57-88.06c-.2-1.31-.32-2.51-1.38-1.57s-.36,5-.2,6.12q12.38,80.24,24.74,160.47c7.58,49.16,15,98.55,28.46,146.52A465.4,465.4,0,0,0,2413,543.54c.81,1.67,1.21-1.06,1.29-1.63.26-1.75.3-4.45-.5-6.11Z"/><path class="cls-3" d="M2353.57,477.36c-29.31-30.46-47.08-69.26-60.26-109-14.77-44.52-25.78-90.4-38.09-135.65q-11.41-42-22.82-83.94c-.5-1.82-.81-1.11-1.38,0-.74,1.48-.27,4.77.15,6.32q20.49,75.36,41,150.71c11.28,41.48,22.12,83.65,41.32,122.33,10.45,21.07,23.44,40.81,39.78,57.79.87.9,1.11-2.89,1.13-3.15.07-1.37.26-4.35-.82-5.48Z"/></g><g class="cls-2"><path class="cls-3" d="M709.22,415.92c-28.87-107.48.31-218.08,48.25-315.38,13.68-27.75,28.52-54.9,42.7-82.38.77-1.5.42-4.12.36-5.75,0-.52-.43-3.65-.63-3.25C773.13,61.06,744.51,112,725,167.23c-18.74,53.06-29.38,108.85-28.57,165.23A377.26,377.26,0,0,0,709,424.92c.13.48.62-2.92.63-3.26a19.74,19.74,0,0,0-.36-5.74Z"/><path class="cls-3" d="M757.77,12.43c-1.19,40.3-3.68,80.56-9.32,120.49a18.53,18.53,0,0,0,0,6.6c.33,1.3.46,1.87.73,0,5.82-41.29,8.35-83,9.58-124.6,0-1.06.54-5-.35-5.75-.52-.41-.63,3-.64,3.26Z"/><path class="cls-3" d="M1056.43,9.23c-22,37.56-50.87,70.67-83.6,99.29C939,138.1,901.25,162,864.22,187.26c-34.69,23.63-68.37,49.79-93.09,84.15-24,33.34-38.73,72.43-44.79,112.94-7.14,47.76-3.63,97.87,14.25,143,.22.55.62-3,.63-3.26.06-1.74.3-4.07-.36-5.74-31.41-79.22-17.6-173.94,33.51-241.93,24.84-33,58.09-58.28,92-81.29,35.07-23.77,70.7-46.57,102.93-74.22,34.26-29.4,64.46-63.64,87.36-102.65.81-1.39.41-4.19.35-5.74,0-.51-.39-3.67-.63-3.26Z"/><path class="cls-3" d="M748.23,131.94c14.62-41.28,36.45-79.25,63-114,.89-1.16.41-4.37.36-5.75,0-.49-.3-3.69-.63-3.25-26.55,34.73-48.38,72.7-63,114-.61,1.73-.42,3.94-.36,5.74,0,.59.52,3.57.63,3.26Z"/><path class="cls-3" d="M704.21,376.31c-10.76-30.26-4.26-61.37,6-90.8a419.34,419.34,0,0,1,37.2-78.66c14.72-24.37,32.06-47.51,52.53-67.37,20.19-19.57,43.55-34.62,65.91-51.43,25.95-19.49,45.41-44.59,65.8-69.51,1.49-1.81-.77-8.39-.27-9-20.32,24.83-39.69,49.76-65.53,69.18-24.3,18.26-49.64,34.58-71,56.49-20.64,21.19-38.08,45.5-52.73,71.14-15.58,27.26-28.87,56.36-37.46,86.61-8.42,29.67-11.23,62.83-.73,92.35.19.53.62-3,.63-3.26.06-1.78.26-4-.36-5.74Z"/><path class="cls-3" d="M759.59,56.89a299.17,299.17,0,0,0,21.28-38.84c.73-1.58.42-4.05.36-5.74,0-.54-.46-3.63-.63-3.26a298,298,0,0,1-21.29,38.84c-.85,1.3-.41,4.26-.36,5.74,0,.5.36,3.68.64,3.26Z"/><path class="cls-3" d="M553.75,300.69c-29.41-71.61-52.26-148.9-42.8-227.08A226.22,226.22,0,0,1,518,38.32a75.81,75.81,0,0,0,2.66-26.6c-.08-1.11.14-2.65-.7-1.67s-.27,5.21-.19,6.38c.44,6.05-1.78,12.33-3.62,18A103.81,103.81,0,0,0,513,48.6q-2.6,14.65-3.88,29.51a380.3,380.3,0,0,0-.66,56.68c2.34,38.35,10.54,76.08,22.14,112.64,6.7,21.09,14.51,41.8,22.92,62.26.23.56.62-3,.63-3.26.06-1.72.32-4.09-.36-5.74Z"/><path class="cls-3" d="M528.35,256.64c-.74-39.25-23.88-70.72-51.2-96.91-31.53-30.22-67.68-55.33-97.38-87.51A276.42,276.42,0,0,1,335.75,9c-.29-.58-.62,3-.63,3.26-.06,1.6-.4,4.22.36,5.74,19.22,38.26,47.62,69.47,79.7,97.37,30.27,26.33,64.05,50.43,88.25,82.87,13.14,17.61,23.51,38.53,23.93,60.89,0,.5,0,3.56.63,3.26s.37-5.19.36-5.74Z"/><path class="cls-3" d="M506.15,187.75c-42-34.78-72.94-81.19-92.41-131.88a373.31,373.31,0,0,1-14.21-45.65c-.42-1.72-.65,1.32-.68,1.61A20.2,20.2,0,0,0,399,18c13,53.43,37.26,104.41,73.53,146a291.8,291.8,0,0,0,33.59,32.74c.05,0,.49-4.12.49-4.5,0-1,.37-3.79-.49-4.5Z"/><path class="cls-3" d="M588.29,9.64c-33.28,61-66,126.27-64,197.58a192,192,0,0,0,10.15,57.3c.18.51.6-2.86.61-3.14a15.88,15.88,0,0,0-.35-5.54c-11.29-32.88-11.52-66.82-4-100.56,6.94-31.18,19.24-60.95,33.19-89.58,7.81-16,16.2-31.74,24.74-47.38.76-1.4.4-4,.34-5.54,0-.49-.39-3.53-.61-3.14Z"/><path class="cls-3" d="M516.89,202.71C495.76,141.9,514.11,79.06,523,17.8a26.46,26.46,0,0,0,.18-6.16c0-.42-.43-3.32-.68-1.62-9.6,66.47-28.75,135.41-5.83,201.37.17.52.59-2.86.6-3.14a15.88,15.88,0,0,0-.34-5.54Z"/><path class="cls-3" d="M512.92,192.3c-24.63-58.13-42.49-119.2-50.46-181.9-.23-1.75-.31-1.18-.7,0-.58,1.71-.23,4.58,0,6.36C469.83,80.27,487.7,142.09,512.65,201c.23.54.6-2.89.61-3.15.07-1.63.32-4-.34-5.53Z"/><path class="cls-3" d="M452.82,134.15c-33.27-34.63-51.54-79.82-65.39-125-.15-.49-.6,2.85-.61,3.15a17.13,17.13,0,0,0,.35,5.53c13.9,45.39,32.27,90.63,65.65,125.37,0,0,.49-4.05.49-4.5,0-1.1.35-3.62-.49-4.5Z"/></g><g class="cls-2"><path class="cls-3" d="M2978.44,2490.67c-3.93-22.17-9.52-44-15.19-65.76-.46-1.76-.67,1.36-.7,1.68a20.08,20.08,0,0,0,.18,6.38c5.67,21.78,11.27,43.59,15.19,65.76.33,1.84.68-1.44.7-1.67a24.87,24.87,0,0,0-.18-6.39Z"/><path class="cls-3" d="M2978.44,2756.51c-6.19-25.87-9.82-52.38-9.49-79s5.4-52.41,9.54-78.55a26.72,26.72,0,0,0,.19-6.38c0-.44-.43-3.44-.71-1.68-4.58,29-9.77,57.5-10,86.95a357.46,357.46,0,0,0,10,86.74c.42,1.79.67-1.38.7-1.67a21.07,21.07,0,0,0-.19-6.39Z"/><path class="cls-3" d="M2989.26,2821.58c-1-50.68-38.1-87.29-74.09-118.17-20.5-17.58-41.71-34.35-61.1-53.18a301.17,301.17,0,0,1-46-56.16c-15.24-24.4-26.47-51.43-31.16-79.9-.23-1.39-.32-2.57-1.43-1.63s-.38,5.26-.2,6.35c7.71,46.82,31.38,89.44,63,124.38,34.78,38.42,79.73,66.1,114.2,104.71,18,20.21,34.17,45.76,34.71,73.65,0,.52.15,4.8,1.13,4.61s.9-4.07.89-4.66Z"/><path class="cls-3" d="M2966.7,2751.66c-74.71-60.06-109.24-155.82-119.16-248.58-12.07-112.85,6.45-226.11,1.11-339.16-2.79-58.9-11.76-117.92-33.78-172.91l-.55,8.19a1157.09,1157.09,0,0,1,138.45,370.59q10.33,55.29,15.22,111.4c.54,6.17,2.1.79,1.82-2.42A1167.63,1167.63,0,0,0,2867,2090.85q-23.7-51.39-52.37-100.28c-.57-1-1.08,2.61-1.08,2.61a12.79,12.79,0,0,0,.53,5.57c41.73,104.2,34.7,218.41,29.88,328.18-4.57,104.16-6.75,212.15,33.71,310.32,19.49,47.29,48.65,90.81,88.73,123,.5.4,2-7.24.31-8.63Z"/><path class="cls-3" d="M2771.25,2530.45a1292.11,1292.11,0,0,0-70.82-329.73q-16.21-45.39-35.82-89.46l-.55,8.18c14.39,9.21,24.77,22.74,34.78,36.31,10.58,14.36,21.7,27.84,34.55,40.26,26.14,25.27,56,47.41,75.82,78.43,11.25,17.57,19.44,38,18,59.14-.21,3.18,1.52,8.53,1.94,2.33,5.5-82.76-80.85-123.08-123.85-180.42-12.16-16.22-23.57-33.55-41-44.68-1.31-.83-1,7.26-.56,8.19a1274.73,1274.73,0,0,1,94.38,319.24q7.41,47.09,11.24,94.63c.5,6.17,2.08.78,1.82-2.42Z"/><path class="cls-3" d="M2941.49,2278.9c-6.94-51,21-101.15,50.14-140.83.84-1.15.4-4.19.34-5.54,0-.47-.3-3.56-.61-3.14-33.14,45.2-58.38,98.5-50.57,155.87.23,1.74.29,1.19.7,0,.57-1.7.24-4.59,0-6.36Z"/><path class="cls-3" d="M2977.28,2766.44c-18.2-50.5-7.31-103.34,1.07-154.62a24.9,24.9,0,0,0,.18-6.16c0-.42-.4-3.31-.68-1.61-9.19,56.24-20.78,115.72-.83,171.07.19.52.6-2.87.61-3.14a15.41,15.41,0,0,0-.35-5.54Z"/><path class="cls-3" d="M2973.58,2756.5c-21.63-44.71-34.23-93-43.39-141.61-9.44-50.19-16.39-100.88-24.17-151.34q-6.8-44-13.58-88.07c-.2-1.3-.32-2.51-1.37-1.57s-.37,5-.2,6.13q12.38,80.24,24.74,160.46c7.57,49.17,15,98.56,28.45,146.53a466.67,466.67,0,0,0,28.73,77.21c.8,1.67,1.21-1.07,1.29-1.64.26-1.75.3-4.45-.5-6.1Z"/><path class="cls-3" d="M2913.37,2698.06c-29.32-30.47-47.09-69.27-60.26-109-14.77-44.52-25.79-90.4-38.09-135.65l-22.83-83.94c-.49-1.82-.81-1.1-1.37,0-.74,1.48-.27,4.76.15,6.32l41,150.7c11.28,41.49,22.12,83.65,41.32,122.34,10.46,21.07,23.45,40.8,39.79,57.79.87.9,1.11-2.89,1.12-3.15.08-1.37.27-4.36-.81-5.48Z"/></g><g class="cls-2"><path class="cls-3" d="M1402,2989.31c.41-24.77,2.1-49.6,7.09-73.9,4.62-22.46,12.31-44.82,26.34-63.23.88-1.16.4-4.36.35-5.74,0-.49-.3-3.69-.63-3.26-15,19.64-22.69,43.74-27.28,67.74-4.79,25-6.44,50.5-6.86,75.9,0,1.07-.55,5,.35,5.74.52.42.63-3,.64-3.25Z"/><path class="cls-3" d="M1428.72,2844.1c-33.2,41.23-59.25,88.13-73.92,139.12a18.78,18.78,0,0,0-.36,5.75,16.28,16.28,0,0,0,.63,3.25c14.68-51,40.72-97.89,73.92-139.12,1.47-1.83-.78-8.37-.27-9Z"/><path class="cls-3" d="M1539,2991.85c5.23-20.54,10.11-41.17,15-61.8l-.7-6.38c-1.06,21.83-.92,43.68-.17,65.52,0,.49,0,3.56.63,3.26s.38-5.2.36-5.75c-.67-19.43-.88-38.89.07-58.32a20.63,20.63,0,0,0-.08-5.66c-.12-.47-.29-2.15-.63-.73-4.85,20.63-9.73,41.26-15,61.8a20.37,20.37,0,0,0-.19,6.38c0,.5.27,3.39.71,1.68Z"/><path class="cls-3" d="M1078.36,2984.57c-2.81-29.64-10.7-58.42-20.28-86.51l-.26,8.68c1.71,2.92,5.36,7.84,6,10.53l.25-8.38c-1.23.18-5.53-9.64-6-10.83l-.26,8.68c15.58,27.86,30.58,56.06,43.12,85.44.23.54.6-2.89.61-3.14.06-1.64.32-4-.35-5.54-12.53-29.38-27.53-57.58-43.12-85.44-.31-.56-.6,2.9-.61,3.14-.06,1.65-.31,4,.35,5.54.54,1.29,4.9,11.35,6.29,11.15,1-.15.46-7.56.25-8.39-1-4-4.26-8-6.28-11.44-.33-.56-.6,2.9-.61,3.14a15.88,15.88,0,0,0,.35,5.54c9.32,27.34,17.1,55.35,19.84,84.19.17,1.78.31,1.14.7,0,.59-1.76.17-4.53,0-6.36Z"/><path class="cls-3" d="M960.71,2983.61c-.82-1.88-1.65-3.75-2.48-5.63l-.13,8.84a56.35,56.35,0,0,1,7.45,5.68c.14.13.38-1.58.35-1.32A26,26,0,0,0,966,2988a28.09,28.09,0,0,0-.14-3.18c0-.4,0-1-.35-1.32a56.35,56.35,0,0,0-7.45-5.68,25.31,25.31,0,0,0-.49,3.9c0,1.48-.26,3.55.36,4.94q1.24,2.81,2.48,5.63c.21.5.37-.43.38-.45a12.87,12.87,0,0,0,.23-2.69c0-1.64.33-4-.35-5.54Z"/><path class="cls-3" d="M1180.41,2992.22c3.84-7.09,8.84-13.36,13.72-19.74,5-6.56,9.57-13.52,14.07-20.46q12.77-19.7,23.85-40.41a535.79,535.79,0,0,0,35.91-83.82c5.29-16,9.82-32.19,13.72-48.55a20.75,20.75,0,0,0,.21-5.62c0-.43-.45-3-.59-2.61-2.21,6.35-8.11,18-5.19,25.26l.14.16c1.08-.54,1.65-3.86,2-4.85,1.35-4.06,2.45-8.19,3.46-12.34a20.36,20.36,0,0,0,.21-5.62c0-.43-.45-3-.59-2.61-11.22,32.66-11.85,67.56-10.71,101.73,1.29,38.45,4.06,76.79,4.37,115.29,0,.42-.07,4.5.5,4.5s.49-4.35.49-4.5c-.28-34.51-2.23-68.91-3.82-103.37-1.64-35.32-2.21-71.1,9.43-105l-.38-8.23c-.93,3.85-2,7.68-3.22,11.44-.28.86-1.89,3.92-1.6,4.63l.34,5.54c-.16,5,.55-.45,1.06-2.08,1.19-3.79,2.5-7.55,3.8-11.3l-.38-8.23a549.54,549.54,0,0,1-70.34,167.35c-4.68,7.37-9.44,14.77-14.57,21.84-5.51,7.58-11.64,14.61-16.12,22.89-.76,1.4-.41,4-.35,5.54,0,.49.4,3.53.61,3.14Z"/></g><g class="cls-2"><path class="cls-3" d="M5.83,1503.51c23.7-69.1,40.43-140.32,57.14-211.35l-.7-6.39c-3.74,75.78,2.47,151.55,6.76,227.16,2.19,38.65,3.72,77.4,2.17,116.12A590.25,590.25,0,0,1,55,1745.51c-2.44,10-6.75,19-9.94,28.72-3,9.21-6.42,18.27-10.33,27.14a272.62,272.62,0,0,1-29.11,50.57c-.87,1.2-.4,4.33-.36,5.74,0,.49.32,3.69.64,3.26a272.66,272.66,0,0,0,26.93-45.77c7.34-15.83,12.79-32.47,19-48.74,3.12-8.12,4.74-16.93,6.67-25.4q3.38-14.83,5.85-29.87c3-18.38,5.14-36.91,6.49-55.49,5.54-76.33-1.77-152.66-5.77-228.86-2.38-45.38-4.17-90.91-1.93-136.33a20.17,20.17,0,0,0-.08-5.65c-.12-.48-.28-2.15-.62-.73-16.64,70.72-33.3,141.61-56.89,210.41a16.75,16.75,0,0,0-.36,5.74,14.34,14.34,0,0,0,.63,3.26Z"/></g><g class="cls-2"><path class="cls-3" d="M5.77,240C29.41,174.07,42.94,105.18,60,37.37L59.26,31c-.27,5.2-.52,10.41-1,15.6-.17,1.7-.85,4-.13,5.49a8.46,8.46,0,0,0,0-1.43c.06-1.3.17-2.59.3-3.88A76.67,76.67,0,0,1,60,37.37l-.75-5.27C57.31,114.61,63,197,66.09,279.4c2.63,69.63,4,140.18-13.26,208.26C43.34,525.12,28,561,5.63,592.62c-.87,1.23-.41,4.31-.36,5.74,0,.5.33,3.69.63,3.26,40.37-57.06,56.13-126.28,61-195,5.32-75.49-.78-151.53-4.06-227-2.11-48.31-3.73-96.68-2.61-145,0-.83-.37-7-.76-5.27-2,8.66-3.11,18.4-2.21,27.27.27,2.72.75,3.14,1.27.26,1.24-6.9,1.28-14.16,1.64-21.14A20.24,20.24,0,0,0,60.06,30c-.12-.49-.27-2.13-.62-.73C42.5,96.81,29,165.38,5.5,231c-.62,1.72-.42,3.94-.36,5.74,0,.58.52,3.57.63,3.26Z"/></g><g class="cls-2"><path class="cls-3" d="M2393.33,2050.49c-20.4-76-12.32-155.43,11.88-229.54,21.26-65.08,56-123.81,86.56-184.71,15.16-30.22,29.15-61.07,39.95-93.14a481.15,481.15,0,0,0,22.63-104.6c8-77.67.85-155.79,1.2-233.64.16-36.19,2-72.57,8.08-108.29,5.38-31.83,14-64,30.28-92.08a163.73,163.73,0,0,1,12-17.84c1-1.33.72-4.15.56-5.71,0-.37-.61-4.13-1.32-3.21-18.93,24.61-30,54.25-37.31,84.17-8.36,34.25-11.89,69.6-13.42,104.76-3.48,79.56,4.79,159.17.35,238.72-2.18,39-8.18,77.63-19.53,115.09-10.37,34.21-24.55,67.09-40.33,99.11-30.44,61.76-66.21,120.92-88.53,186.37-24.22,71-34.5,147.84-20.84,222.13q2.7,14.63,6.56,29c.51,1.89.84,1.14,1.43,0,.77-1.54.27-4.94-.16-6.55Z"/><path class="cls-3" d="M2595.45,979.12c-61.87,73.16-101.2,163.51-124.53,255.81-13.3,52.57-21.23,106.34-24.92,160.42-4,58.29-3.7,116.76-4,175.16-.35,65.68-1.29,131.61-10.49,196.76-.28,2,1.05,10.34,1.86,4.63,16.14-114.27,7.69-230.09,13-345,4.88-105.66,24.82-211,68.53-307.85,21.21-47,48-91.6,81.33-131,1.06-1.26.71-4.21.57-5.72,0-.39-.57-4.1-1.33-3.2Z"/><path class="cls-3" d="M2432.31,1764.79c16.08-45.45,41-86.64,71.1-124.1,28.15-35,60-66.64,90.35-99.69,31.33-34.15,60.49-70.12,83.24-110.65,25.55-45.52,44.21-94.65,59.81-144.36,18.85-60.07,33.29-121.42,47.7-182.67l-1.8-4.47c-4.37,88.2,5.39,176.23,8.44,264.3,2.9,83.73.12,170.23-35,247.8-29.68,65.59-79.68,118.2-136.9,160.78-28.86,21.47-59.72,40-89,61-32.08,23-61.6,49.6-83.33,82.85-40.58,62.09-51,145.78-32.19,217a242.4,242.4,0,0,0,9.13,27.69c.73,1.84,1.28-1.22,1.35-1.69a13.45,13.45,0,0,0-.52-6.33c-28.63-72.13-20.05-160.78,22-226.18,21.21-33,50.1-59.56,81.67-82.45,28.82-20.91,59.41-39.23,88.12-60.31,56.13-41.24,105.6-91.71,136.4-154.85,35.34-72.43,42-153.73,41-233.19-1.08-87.48-11.42-174.67-10.23-262.21q.22-15.87,1-31.71c0-.92-.86-8.5-1.8-4.47-13,55.33-26.07,110.71-42.41,165.18-15.25,50.82-33.26,101.22-58.14,148.2-21.88,41.33-50,78.24-81.2,112.92-30,33.34-62,64.83-90.8,99.26-33.69,40.3-61.7,84.75-79.27,134.46a13,13,0,0,0-.21,6.34c.11.59.77,3.48,1.42,1.63Z"/><path class="cls-3" d="M2388.1,2010.16c-12.72-35.78-1.39-73.52,12.11-107.29a415,415,0,0,1,46.74-86.64c17.21-24.16,37.42-46.31,60.7-64.75,13.63-10.79,28.4-20,42.35-30.31a232.22,232.22,0,0,0,38.83-37c28.79-33.87,56.47-68.73,84.65-103.11,1.06-1.29.71-4.19.57-5.72,0-.38-.58-4.11-1.33-3.2-26.41,32.23-52.68,64.58-79.25,96.68-12.53,15.13-25.68,29.31-41.36,41.23-14.58,11.09-30.25,20.67-44.65,32-52,41-88.33,99.44-111.59,160.81-13.85,36.54-22.08,77.33-8.6,115.26.68,1.89,1.28-1.26,1.35-1.69a14,14,0,0,0-.52-6.33Z"/><path class="cls-3" d="M2443.44,1690.21c26.94-41.24,42.6-89.21,50.31-137.63,9.09-57.08,3.18-114.84,9.86-172.11,3.8-32.63,10.15-64.88,16.52-97.08.36-1.86.65-4.79-.16-6.55-.57-1.24-1-1.92-1.44,0-5.44,27.55-10.84,55.13-14.73,83a639.81,639.81,0,0,0-6,85.81c-.14,28.64,0,57.15-3.54,85.63a403.64,403.64,0,0,1-17,77c-8.46,25.68-19.76,50.41-34.56,73.06-1,1.48-.72,4-.57,5.72,0,.35.71,4.14,1.33,3.2Z"/><path class="cls-3" d="M2237.64,1934.54c-21.11-55.22-42.88-112.66-45.41-172.37-1.23-29.08,3.94-57.51,8.67-86.07,4.61-27.88,7.65-55.75,5.27-84-2.78-32.89-11-65-19.33-96.81-.47-1.79-.91-1.26-1.43,0-.69,1.71-.3,4.79.16,6.55,7.78,29.88,15.74,60,18.54,90.83,2.74,30.21-1.91,59.72-6.91,89.43-4.63,27.47-8.27,54.91-6.86,82.84,1.43,28.24,6.8,56.12,14.26,83.35,8.79,32,20.36,63.23,32.21,94.25.71,1.86,1.28-1.24,1.34-1.7a13.59,13.59,0,0,0-.51-6.33Z"/><path class="cls-3" d="M2212.47,1891.22c-1-50.68-38.09-87.3-74.09-118.17-20.49-17.58-41.71-34.36-61.1-53.19a301.12,301.12,0,0,1-45.94-56.16c-15.25-24.4-26.48-51.43-31.17-79.9-.23-1.39-.32-2.56-1.42-1.63s-.39,5.27-.21,6.35c7.71,46.82,31.38,89.44,63,124.38,34.78,38.43,79.73,66.1,114.21,104.72,18,20.2,34.17,45.75,34.7,73.65,0,.51.15,4.79,1.13,4.6s.91-4.07.89-4.65Z"/><path class="cls-3" d="M2189.91,1821.29c-74.71-60.06-109.24-155.82-119.16-248.57-12.07-112.86,6.45-226.12,1.11-339.17-2.78-58.9-11.76-117.92-33.78-172.9l-.55,8.18A1156.46,1156.46,0,0,1,2176,1439.42q10.35,55.29,15.22,111.41c.54,6.16,2.11.78,1.83-2.43a1168,1168,0,0,0-102.83-387.92q-23.7-51.39-52.36-100.28c-.58-1-1.09,2.62-1.09,2.62a12.6,12.6,0,0,0,.54,5.56c41.72,104.21,34.69,218.41,29.87,328.18-4.57,104.16-6.75,212.16,33.71,310.33,19.49,47.29,48.65,90.81,88.73,123,.5.4,2-7.23.31-8.63Z"/><path class="cls-3" d="M1994.46,1600.08a1292.11,1292.11,0,0,0-70.82-329.73q-16.22-45.39-35.82-89.46l-.55,8.19c14.39,9.2,24.78,22.73,34.78,36.31,10.58,14.36,21.7,27.84,34.55,40.25,26.14,25.27,56,47.42,75.83,78.43,11.24,17.58,19.43,38,18,59.14-.21,3.19,1.53,8.53,1.94,2.33,5.51-82.76-80.84-123.08-123.84-180.41-12.17-16.22-23.57-33.56-41-44.68-1.31-.84-1,7.26-.55,8.18a1275.63,1275.63,0,0,1,94.38,319.25q7.39,47.08,11.23,94.62c.5,6.17,2.08.79,1.82-2.42Z"/><path class="cls-3" d="M2165.13,1349.44c-4.78-33.26,6.17-66,21.42-95.2s35-56,54.06-83c40.14-56.88,73.68-118,99.08-182.89a851.48,851.48,0,0,0,35.07-111.86,12.39,12.39,0,0,0-.07-5.87c-.17-.52-.71-2.78-1.29-1.12-22.93,66.28-16.53,137.55-13.08,206.27,3.49,69.27,5.34,138.71,2,208-3.32,69-11.88,137.93-29.62,204.73a699.4,699.4,0,0,1-33,96.21c-14.21,33.16-31.75,64.69-47.88,96.93-29.61,59.22-54.25,125.33-40.62,192.47a169,169,0,0,0,6.52,23.26c.65,1.82,1.24-1.22,1.3-1.63a13.41,13.41,0,0,0-.5-6.1c-24.32-68.13,4.26-140.09,34.88-201.08,15.23-30.33,31.66-60.07,45.31-91.18a691.56,691.56,0,0,0,33-93.38c17.47-63.06,26.75-128.11,31.09-193.32,4.44-66.7,3.75-133.63,1-200.38-1.39-34-3.81-67.92-4.76-101.91-1-35.45,0-71.24,8.12-105.91a252.56,252.56,0,0,1,7.36-25.31l-1.36-7A840.7,840.7,0,0,1,2295,1074.43a899.83,899.83,0,0,1-57,91c-19.68,27.82-40,55.54-55.15,86.19-15.8,32-24.35,66.69-19.22,102.38.19,1.31.33,2.5,1.37,1.57s.36-5,.2-6.12Z"/><path class="cls-3" d="M2200.76,1836.55c-12.32-34.94-10.72-72.15-6-108.34,4.91-37.46,11.8-74.71,17.9-112q18.57-113.67,37.15-227.34,10.53-64.46,21.07-128.92c.28-1.68.76-4.78-.15-6.32-.59-1-1-2-1.38,0l-39.09,239.14q-9.72,59.54-19.46,119.08c-6.23,38.12-13.33,76.23-18.18,114.56-5,39.25-6,80,7.33,117.81.64,1.83,1.23-1.22,1.29-1.63a13.28,13.28,0,0,0-.5-6.1Z"/><path class="cls-3" d="M2196.79,1826.13c-21.63-44.71-34.23-93-43.38-141.6-9.45-50.19-16.4-100.88-24.18-151.35q-6.78-44-13.57-88.06c-.2-1.31-.33-2.51-1.38-1.57s-.36,5-.2,6.12q12.38,80.24,24.74,160.47c7.58,49.16,15,98.55,28.45,146.52a466.33,466.33,0,0,0,28.73,77.21c.81,1.67,1.21-1.07,1.29-1.64a11.94,11.94,0,0,0-.5-6.1Z"/><path class="cls-3" d="M2136.58,1767.69c-29.32-30.47-47.09-69.27-60.26-109-14.77-44.53-25.78-90.41-38.09-135.65q-11.42-42-22.82-83.94c-.5-1.83-.81-1.11-1.38,0-.74,1.48-.27,4.76.15,6.32l41,150.71c11.28,41.48,22.13,83.64,41.32,122.33,10.46,21.07,23.45,40.81,39.79,57.79.87.9,1.11-2.89,1.13-3.15.07-1.37.26-4.35-.82-5.48Z"/></g></svg>