<svg xmlns="http://www.w3.org/2000/svg" viewBox="0 0 3000 3000"><defs><style>.cls-1,.cls-8{opacity:0.58;}.cls-10,.cls-2,.cls-23,.cls-31,.cls-35,.cls-36{fill:#edc34d;}.cls-3,.cls-32,.cls-8{fill:#fef8ea;}.cls-4{fill:#bcddff;}.cls-5{opacity:0.32;}.cls-23,.cls-31,.cls-35,.cls-5{font-size:1010.27px;}.cls-19,.cls-5{fill:#731c46;}.cls-23,.cls-31,.cls-35,.cls-36,.cls-5{font-family:MyriadPro-Regular, Myriad Pro;}.cls-10,.cls-11,.cls-19,.cls-28,.cls-32,.cls-6,.cls-8{font-family:Autography;}.cls-7{letter-spacing:0.01em;}.cls-8{font-size:477.15px;letter-spacing:0.01em;}.cls-9{letter-spacing:0em;}.cls-10,.cls-23{opacity:0.69;}.cls-10{font-size:550.51px;}.cls-11{opacity:0.44;font-size:788.23px;letter-spacing:0.01em;}.cls-11,.cls-28{fill:#dd92a2;}.cls-12{letter-spacing:0.02em;}.cls-13{letter-spacing:-0.02em;}.cls-14{letter-spacing:0.02em;}.cls-15{letter-spacing:0.02em;}.cls-16{letter-spacing:0.03em;}.cls-17{letter-spacing:0.01em;}.cls-18{letter-spacing:-0.71em;}.cls-19{opacity:0.38;font-size:756.54px;letter-spacing:-0.03em;}.cls-20{letter-spacing:-0.02em;}.cls-21{letter-spacing:-0.03em;}.cls-22{letter-spacing:-0.75em;}.cls-24{letter-spacing:-0.02em;}.cls-25{letter-spacing:0.01em;}.cls-26{letter-spacing:-0.02em;}.cls-27{opacity:0.57;}.cls-28{font-size:732.84px;letter-spacing:-0.71em;}.cls-29{letter-spacing:0.01em;}.cls-30{letter-spacing:0.01em;}.cls-31{opacity:0.99;}.cls-33{letter-spacing:0.01em;}.cls-34{letter-spacing:0.02em;}.cls-36{font-size:392.66px;}.cls-37{letter-spacing:-0.01em;}</style></defs><g id="Capa_1" data-name="Capa 1"><g class="cls-1"><path class="cls-2" d="M1313.6,1333.43c1.36,0,1.29-8.94-.22-8.94-1.35,0-1.28,8.94.22,8.94Z"/></g><g class="cls-1"><path class="cls-2" d="M1331.6,1418.93c1.36,0,1.29-8.94-.22-8.94-1.35,0-1.28,8.94.22,8.94Z"/></g><g class="cls-1"><path class="cls-2" d="M1304.6,1342.43c1.36,0,1.29-8.94-.22-8.94-1.35,0-1.28,8.94.22,8.94Z"/></g><g class="cls-1"><path class="cls-2" d="M1057.1,1315.43h4.5c.43,0,.63-1.16.66-1.33a17.38,17.38,0,0,0-.16-6.32c-.09-.32-.25-1.29-.72-1.29h-4.5c-.42,0-.62,1.17-.65,1.33a17.68,17.68,0,0,0,.15,6.32c.09.32.26,1.29.72,1.29Z"/></g><g class="cls-1"><path class="cls-2" d="M1133.6,1351.43c1.36,0,1.29-8.94-.22-8.94-1.35,0-1.28,8.94.22,8.94Z"/></g><g class="cls-1"><path class="cls-2" d="M1160.6,1297.43c1.36,0,1.29-8.94-.22-8.94-1.35,0-1.28,8.94.22,8.94Z"/></g><g class="cls-1"><path class="cls-2" d="M1174.1,1382.93c1.36,0,1.29-8.94-.22-8.94-1.35,0-1.28,8.94.22,8.94Z"/></g><g class="cls-1"><path class="cls-2" d="M985.1,1337.93c1.36,0,1.29-8.94-.22-8.94-1.35,0-1.28,8.94.22,8.94Z"/></g><g class="cls-1"><path class="cls-3" d="M1547.6,1432.43c1.36,0,1.29-8.94-.22-8.94-1.35,0-1.28,8.94.22,8.94Z"/></g><g class="cls-1"><path class="cls-3" d="M1493.6,1400.93c1.36,0,1.29-8.94-.22-8.94-1.35,0-1.28,8.94.22,8.94Z"/></g><g class="cls-1"><path class="cls-3" d="M1466.6,1432.43c1.36,0,1.29-8.94-.22-8.94-1.35,0-1.28,8.94.22,8.94Z"/></g><g class="cls-1"><path class="cls-3" d="M1516.1,1369.43c1.36,0,1.29-8.94-.22-8.94-1.35,0-1.28,8.94.22,8.94Z"/></g><g class="cls-1"><path class="cls-3" d="M1831.1,1373.93c1.36,0,1.29-8.94-.22-8.94-1.35,0-1.28,8.94.22,8.94Z"/></g><g class="cls-1"><path class="cls-3" d="M1804.1,1414.43h4.5c.43,0,.63-1.16.66-1.33a17.38,17.38,0,0,0-.16-6.32c-.09-.32-.25-1.29-.72-1.29h-4.5c-.42,0-.62,1.17-.65,1.33a17.68,17.68,0,0,0,.15,6.32c.09.32.26,1.29.72,1.29Z"/></g><g class="cls-1"><path class="cls-3" d="M1930.1,1369.43h4.5c.43,0,.63-1.16.66-1.33a17.38,17.38,0,0,0-.16-6.32c-.09-.32-.25-1.29-.72-1.29h-4.5c-.42,0-.62,1.17-.65,1.33a17.68,17.68,0,0,0,.15,6.32c.09.32.26,1.29.72,1.29Z"/></g><g class="cls-1"><path class="cls-3" d="M1970.6,1432.43c1.36,0,1.29-8.94-.22-8.94-1.35,0-1.28,8.94.22,8.94Z"/></g><g class="cls-1"><path class="cls-3" d="M2141.6,1337.93c1.36,0,1.29-8.94-.22-8.94-1.35,0-1.28,8.94.22,8.94Z"/></g><path class="cls-3" d="M2191.1,1423.43c1.36,0,1.29-8.94-.22-8.94-1.35,0-1.28,8.94.22,8.94Z"/><g class="cls-1"><path class="cls-3" d="M2123.6,1346.93c1.36,0,1.29-8.94-.22-8.94-1.35,0-1.28,8.94.22,8.94Z"/></g><g class="cls-1"><path class="cls-3" d="M2087.6,901.43c1.36,0,1.29-8.94-.22-8.94-1.35,0-1.28,8.94.22,8.94Z"/></g><g class="cls-1"><path class="cls-3" d="M2078.6,829.43c1.36,0,1.29-8.94-.22-8.94-1.35,0-1.28,8.94.22,8.94Z"/></g><g class="cls-1"><path class="cls-3" d="M2128.1,1351.43c1.36,0,1.29-8.94-.22-8.94-1.35,0-1.28,8.94.22,8.94Z"/></g><path class="cls-3" d="M2186.6,1450.43c1.36,0,1.29-8.94-.22-8.94-1.35,0-1.28,8.94.22,8.94Z"/><g class="cls-1"><path class="cls-3" d="M2051.6,626.93c1.36,0,1.29-8.94-.22-8.94-1.35,0-1.28,8.94.22,8.94Z"/></g><path class="cls-3" d="M2150.6,644.93c1.36,0,1.29-8.94-.22-8.94-1.35,0-1.28,8.94.22,8.94Z"/><g class="cls-1"><path class="cls-3" d="M1970.6,662.93c1.36,0,1.29-8.94-.22-8.94-1.35,0-1.28,8.94.22,8.94Z"/></g><path class="cls-3" d="M2222.6,545.93c1.36,0,1.29-8.94-.22-8.94-1.35,0-1.28,8.94.22,8.94Z"/><path class="cls-3" d="M2213.6,653.93c1.36,0,1.29-8.94-.22-8.94-1.35,0-1.28,8.94.22,8.94Z"/><g class="cls-1"><path class="cls-3" d="M1948.1,653.93c1.36,0,1.29-8.94-.22-8.94-1.35,0-1.28,8.94.22,8.94Z"/></g><g class="cls-1"><path class="cls-3" d="M1916.6,644.93c1.36,0,1.29-8.94-.22-8.94-1.35,0-1.28,8.94.22,8.94Z"/></g><g class="cls-1"><path class="cls-3" d="M2033.6,644.93h4.5c.43,0,.63-1.16.66-1.33a17.38,17.38,0,0,0-.16-6.32c-.09-.32-.25-1.29-.72-1.29h-4.5c-.42,0-.62,1.17-.65,1.33a17.68,17.68,0,0,0,.15,6.32c.09.32.26,1.29.72,1.29Z"/></g><g class="cls-1"><path class="cls-3" d="M1849.1,982.43c1.36,0,1.29-8.94-.22-8.94-1.35,0-1.28,8.94.22,8.94Z"/></g><g class="cls-1"><path class="cls-3" d="M1957.1,995.93c1.36,0,1.29-8.94-.22-8.94-1.35,0-1.28,8.94.22,8.94Z"/></g><g class="cls-1"><path class="cls-3" d="M1714.1,1018.43c1.36,0,1.29-8.94-.22-8.94-1.35,0-1.28,8.94.22,8.94Z"/></g><g class="cls-1"><path class="cls-3" d="M1718.6,1018.43c1.36,0,1.29-8.94-.22-8.94-1.35,0-1.28,8.94.22,8.94Z"/></g><g class="cls-1"><path class="cls-3" d="M1835.29,986.2l13.5-13.5c1.07-1.07.67-4.17.55-5.52,0-.42-.46-3.91-1.28-3.09l-13.5,13.5c-1.06,1.07-.66,4.17-.54,5.52,0,.42.45,3.91,1.27,3.09Z"/></g><path class="cls-4" d="M1,0V575.6A5.66,5.66,0,0,1,5.5,581a5,5,0,0,1-.33,2.15c1.19-.09,2.48.53-1.21,1.6a4.08,4.08,0,0,1-.33.25c-.29.82-.7,1.65-1,2.43a.3.3,0,0,0,0,.1c.82,4.22,1.44,8.48,1.92,12.77,2.63,2.76,2.42,8,1.14,11.23,0,.11-.1.23-.15.35.24,3.89.4,7.77.51,11.62.6,20.34-.51,40.66-.54,61a4.73,4.73,0,0,1-1.21,3.25c4.79,46.5,2.2,93.71,2.15,140.44a6.89,6.89,0,0,1-5.44,7V3000H3001V0Z"/><text class="cls-5" transform="translate(1156.5 -747.38) rotate(-0.08) scale(0.85 1)"> <tspan class="cls-6"><tspan x="0" y="1212.32">ju</tspan><tspan class="cls-7" x="645.54" y="1212.32">g</tspan><tspan x="1051.64" y="1212.32">ar</tspan></tspan></text><text class="cls-8" transform="translate(1991.8 649.13) rotate(-1.8) scale(0.74 1)">y<tspan class="cls-9" x="184.65" y="0">oga</tspan></text><text class="cls-10" transform="translate(1776.79 2297.56) scale(0.95 1)">acro</text><text class="cls-11" transform="translate(2839.96 2865.57) rotate(-89.98) scale(0.7 1)">c<tspan class="cls-12" x="235.68" y="0">o</tspan><tspan class="cls-13" x="474.49" y="0">m</tspan><tspan class="cls-14" x="900.92" y="0">p</tspan><tspan class="cls-15" x="1183.88" y="0">l</tspan><tspan x="1401.42" y="0">e</tspan><tspan class="cls-16" x="1635.52" y="0">m</tspan><tspan class="cls-17" x="2098.98" y="0">entarse</tspan><tspan class="cls-18" x="4054.53" y="0"> </tspan></text><text class="cls-19" transform="translate(233 2866) scale(1.15 1)">di<tspan class="cls-20" x="394.15" y="0">v</tspan><tspan class="cls-21" x="592.36" y="0">ertirse</tspan><tspan class="cls-22" x="1989.66" y="0"> </tspan></text></g><g id="Capa_2" data-name="Capa 2"><text class="cls-23" transform="translate(823.32 222.2) rotate(-0.08) scale(0.85 1)"> <tspan class="cls-6"><tspan class="cls-24" x="0" y="1212.32">e</tspan><tspan class="cls-25" x="271.76" y="1212.32">p</tspan><tspan class="cls-26" x="623.31" y="1212.32">l</tspan><tspan x="869.82" y="1212.32">orar</tspan></tspan></text><g class="cls-27"><text class="cls-28" transform="translate(-558.71 2167.63) rotate(-90.74) scale(1.04 1)"> <tspan class="cls-29"><tspan x="0" y="879.41">a</tspan><tspan class="cls-30" x="298.26" y="879.41">prender</tspan></tspan></text></g><text class="cls-31" transform="translate(538.71 918.16) rotate(-0.08) scale(0.85 1)"> <tspan class="cls-32"><tspan x="0" y="1212.32">c</tspan><tspan class="cls-33" x="290.95" y="1212.32">o</tspan><tspan class="cls-34" x="580.89" y="1212.32">n</tspan><tspan x="1043.57" y="1212.32">ectar</tspan></tspan></text><text class="cls-35" transform="translate(511.23 2756.98) rotate(-89.73) scale(0.85 1)"> </text><text class="cls-36" transform="translate(208.38 1728.31) rotate(-89.6) scale(1.41 1)"> <tspan class="cls-32"><tspan x="0" y="471.19">equi</tspan><tspan class="cls-37" x="484.14" y="471.19">l</tspan><tspan x="581.13" y="471.19">ibrar</tspan></tspan></text></g></svg>